<svg xmlns="http://www.w3.org/2000/svg" width="123.179" height="66.225"><path d="M103.244 18.436c-.012 2.9-1.257 4.645-1.36 7.46 6.264.978 11.995 1.612 17.187 4.002.842.388 2.434 1.104 2.284 1.779-.348 1.512-5.087 1.178-6.107 2.18.8.988 1.618 1.944 2.448 3.008.721.926 2.2 1.779 1.842 3.399-.875.255-1.797-.146-2.847-.152a66.454 66.454 0 0 1-13.88-1.148c-2.794-.571-7.652.013-10.295-1.14-.138-2.125.596-3.432.945-5.1a166.141 166.141 0 0 0-39.227-1.541c-2.297.21-4.481.708-6.764.966-7.015.785-13.557 1.007-19.55 2.994-.478 1.11.31 3.06.146 4.446-4.565.806-8.818 1.866-13.258 2.663-3.883.694-7.71 1.863-11.913 2.248-.237-3.498 2.863-4.891 4.716-6.825-1.51-1.285-3.9-1.63-5.889-2.4-.035-1.244 1.415-1.544 2.161-1.923a9.563 9.563 0 0 0 2.79-1.577 81.825 81.825 0 0 0 7.691-2.848c-.445-2.276-2.3-4.19-3.282-5.824.366-.693 1.113-.484 1.708-.675 2.074-.658 4.125-1.77 6.473-2.315 1.92-.446 4.02-.708 6.142-1.068 5.919-1.004 13.003-2.612 19.675-3.001 1.173-.069 2.398.092 3.585.004 5.608-.412 10.998-1.596 17.624-1.449 4.589.101 7.652.662 11.777 1.092 4.26.444 8.468.22 12.635.941 2.126.368 4.216.653 6.334.902a47.653 47.653 0 0 1 6.209.902ZM81.32 16.939c-7.18-.318-14.44-1.948-21.785-1.131-3.904.433-8.166 1.25-12.19 1.392a91.322 91.322 0 0 0-11.95 1.14c-7.809 1.325-15.444 2.407-22.201 5.058 1.388 2.935 2.808 6.184 4.392 9.372.59-.017.975 2.9 2.204 3.14a9.261 9.261 0 0 0 1.84-.559c.746-.214 1.384-.205 1.845-.309 4.008-.893 8.173-2.218 11.646-2.857a74.182 74.182 0 0 1 8.373-.895c4.9-.35 10.174-1.25 15.518-1.626a76.228 76.228 0 0 1 8.395-.278 254.208 254.208 0 0 1 32.354 3.006 70.588 70.588 0 0 0 .95-8.56c.154-1.701 1.122-2.988 1.203-4.613-6.536-.463-13.349-1.958-20.597-2.276ZM14.9 30.138c-.01-.075-.025-.145-.127-.12-1.99.611-3.662 1.52-5.74 2.042-1.614.965-3.774 1.412-4.976 2.76.861.102 1.355.599 2.245.666.584 1.191 3.295.608 3.405 1.986.072.914-1.066.986-1.683 1.416-.578.397-1.457 1.175-2.166 1.8-.782.69-1.76 1.572-1.527 2.4 6.951-1.337 14.39-2.542 21.11-4.407a17.507 17.507 0 0 0-6.596-1.384c-1.278-2.216-2.554-4.733-3.948-7.155Zm86.905-2.88a56.251 56.251 0 0 1-1.017 6.583c-.886.167-1.26.814-2.448.7-.908.74-2.343.996-3.152 1.832-.593.124-1.24.195-1.334.786 1.275.63 2.571.22 3.839.243 6.75.13 13.179 1.998 19.945 1.44-.154-.658-.889-1.327-1.552-2.048a10.167 10.167 0 0 0-1.916-1.913c-.326-.183-1.693-.242-1.642-1.06.042-.67 1.341-.817 2.065-1.054 1.672-.552 3.141-1.103 4.4-1.507-4.538-2.322-11.026-3.224-17.19-4Z" fill-rule="evenodd"/><path d="m28.685 27.065-.13.227-.212.245-.137.089-.492-.056-.194-.141-.153-.24-.295-.19-.765-.58-.978-.773-.43-.471-.512-.427-.296-.205-.024-.068-.102-.05-.065-.01-.093.13-.028 1.376.096.284.127.529.115.27.003.068-.078.045-.425.063-.392-.09-.104-.076.136-.117-.007-.125-.162-.747.044-.332-.027-.508.038-.44-.047-.892-.294-.177-.228-.07-.071-.19.046-.29.36-.12.245-.012.04-.03.2.017.334.134.17.19.029.15.858.82.467.36.456.54.317.217.665.625.443.293.187.073.02-.001-.021-.4-.17-.527-.729-1.844-.292-.508.073-.169-.002-.04.095-.088.327.01.166.06.382.281.083.037.008.15-.217.15.09.16.056.297.154.212.032.232.202.36.054.26.065.065.099.338.118.352.206.428.01.178.248.468.288.054Zm6.616-2.464-.09.606-.2.45-.331.306-.092.156-.279.125-.353.265-.693.38-.959.367-.526.069-.33-.02-.475-.127-.599-.545-.101-.38-.064-.052.049-.236.011-.564.056-.103-.027-.136-.146-.057.175-.477.822-.644.119-.075.92-.324.464-.093 1.018-.013.849.256.594.45Zm-.765.165-.107-.132-.03-.205-.82-.451-.29-.064h-.51l-.323.043-.138.09-.268.024-.793.413.002.037.042.025.07.188-.128.188-.164.366-.107.68.153.593.257.234.388.006.422-.022 1.215-.531.708-.49.343-.458.07-.196Zm10.318 5.19-.059.374-.16.434-.19.217-.947.585-1.016.478-.282.07-.138.076-.323.072-.096.074-.463.106-.895.117-.795.014-1.254-.223-.625-.255-.42-.226-.644-.612-.157-.292-.083-.037-.073-.216-.117-.337-.024-.455.083-.32.05-.223-.003-.041.741-.64.729-.478.798-.317.582-.168.485-.08.282-.056-.072-.217-.277-.218-.003-.058-.848-.63-.135-.24.035-.126-.002-.027-.064-.036-.797-.04-.618-.119-.376-.186-.448-.377-.182-.362-.03-.563.448-.793.133-.172.315-.21.61-.031.187.06.174.196.26-.095.34-.118.174-.188-.002-.038.727-.505.176-.147.06-.003.748-.52.529-.013.237.248-.067.28.012.219-.178.11-.2.01v-.02l-.105-.076-.26.096-.397.2-.386.404.739.497.456.54.023.452-.261.453-.532.345-.697.298-.019.028.254.179.157.28.469.388.583.643.348.407.187.073.072.202-.038.071.167.06.447-.023.778.084.536.109.586.299.595.449.264.387.093.215Zm-4.745-5.398-.083-.037-.01-.18-.658-.502-.398-.2-.467.025-.402.121-.242.04-.102-.036-.008-.154-.087-.05-.182.01-.06.03-.294.207-.015.111-.176.134-.09.197-.072.169.021.4.18.333.299.246.167.073.474.1.611-.005.18-.065.264-.04.438-.189-.001-.03.633-.363Zm4.045 5.258-.208-.403-.658-.502-.479-.168-.72-.127-1.485.05-.18.065-.384.061-.602.183-.874.526-.198.038-.103-.05-.006-.122.05-.195.45-.38.297-.14.259-.138.888-.239-.334-.148-.183.01-.04.029-.385.034-.604.156-.835.387-.471.341-.213.218-.208.311-.088.238-.016.469.255.587.393.515.739.484.352.106.332.107.574.07.899-.047 1.07-.194.422-.104.56-.222.952-.489.53-.371.268-.344Zm3.299-3.553-.112.198-.298.14-.285.015-.273-.151.094-.541-.004-.072-.182.01-.279.138-.182.024-.278.139-.6.21-.527.068-.241.054-1.018.04-.249-.098-.434-.06-.442-.324-.131-.171.022-.359.169-.27.176-.133-.002-.051.311-.278.868-.646.612-.376.375-.16.966-.23.877.01.057-.072-.361-.668-.21-.196-.32-.258-.478-.196-.534.028-.378.171-.448.408-.111.198.008.151-.216.163-.124-.035-.255-.193-.012-.245.128-.268.251-.261.156-.145.674-.352.403-.103.653.02.477.168.378.213.365.353.303.341.3.645.178 1.076.064 1.233.11.558Zm-.843-.918-.066-.097.042-.36-.14-.775-.087-.096-.301-.172-.613-.023-.16.064-.717.203-.514.288-.868.646-.269.315-.087.238.03.19.172.17.395.144.9-.02.466-.051.563-.154 1.025-.274.216-.149Zm8.122.604-.003.33-.318.168-.245-.014-.272-.18-.12-1.135-.05-.96-.007-.508-.063-.08-.142.008-.718.683-.613.748-.13.254-.237.112-.037.084-.223.091-.246-.028-.212-.236.164-.683-.023-.452.075-.114-.071-.573-.065-.066-.008-.15-.133-.213-.163.008-.802.633-.404.447-.09.183-.18.176.053.643.187.458.08.339-.056.103-.16.077-.2-.016-.318-.217-.121-.406-.116-.31-.025-.472-.193-.182-.025-.099-.003-.064.167-.297-.06-1.165-.098-.312-.085-.064-.007-.137.375-.24.181-.037.183-.01.083.038.109 1.286.021.026.122-.007.679-.654.179-.079.334-.237.403-.09.429.032.345.366.132.594-.047.649.125.062.06-.003.408-.393.347-.362.587-.484.176-.133.2-.01.332.106.084.065.108.131.108.53-.017 1.2.056 1.06Zm2.439-5.559-.015.101-.156.06-.821-.04-.287-.085-.235-.208-.007-.133.132-.185.179-.078.427.004.293.136.238.263Zm.7 5.598-.016.469-.325.017-.168-.117-.004-.067-.125-.062-.006-.11-.105-.095-.043-.809-.085-.077.077-.073-.092-.97-.11-.572-.007-.12-.112-.227.027-.192.216-.162.348.037.185.086.063.038.037.699.084.064-.074.129.057 1.08.078.71Zm14.956-6.25-.136.108-1.484.078-.118.053-.61.032-.995.121-.077.073.17 1.352.041.768-.018.028.003.07.103.049.81-.112.541-.152.894-.147.854-.03-.034.125-.298.14-.405.048-.137.107-.242.04-.261.083-.384.075-1.407.374-.077.086-.015 1.252.096.295.011.206.16.35.067.106.288.054.084.05-.03.194-.277.18h-.285l-.247-.068-.32-.272-.028-.164-.084-.05-.119-.722.014-1.279-.084-.05-.263.04-.183.01-.464-.292.051-.195.094-.129.81-.084.028-.248.02-.802-.092-.586-.186-.548-.064-.052-.104-.064-1.22.037-.205-.09-.024-.462.318-.154.398.037.27.068.527-.042.097-.06.452.076 1.506-.079 1.42-.12.574.052.187.072.084.065Zm6.328 4.864-.112.198-.298.14-.285.015-.273-.15.094-.541-.004-.073-.183.01-.278.138-.182.024-.278.138-.601.21-.526.069-.242.053-1.017.04-.25-.097-.43-.06-.444-.324-.13-.169.022-.358.169-.27.176-.134-.003-.054.312-.277.867-.647.612-.375.38-.157.966-.23.877.01.057-.072-.361-.668-.21-.195-.32-.26-.479-.194-.528.027-.379.171-.447.408-.112.198.008.151-.215.163-.138-.037-.254-.193-.013-.247.13-.268.252-.26.155-.146.675-.352.402-.103.653.021.478.167.377.214.365.352.303.342.3.644.178 1.076.065 1.234.11.558Zm-.844-.918-.066-.096.042-.36-.14-.776-.087-.096-.295-.172-.613-.023-.16.063-.723.203-.515.289-.867.646-.27.314-.087.238.03.191.172.17.396.15.9-.02.466-.052.563-.153 1.025-.274.216-.148Zm5.718-2.114-.094.13-.277.15-.344.046-.356.21-.071.183-.274.22-.13.255-.084.292-.297.552-.257.549-.16.434-.133.185-.222.053-.193.134-.245-.014-.236-.127-.009-1.332.046-.291-.038-.727-.135-.24-.008-.165-.112-.215-.004-.082.238-.122.1-.005.272.137.177.252.08.38.072.188.043.823.042.025.187-.257.069-.237.228-.312.078-.045.007-.262.15-.255.326-.375.316-.209.38-.144.753-.025-.019.028.124.034Zm7.3 2.46-.003.329-.317.168-.245-.014-.275-.178-.12-1.135-.05-.96-.007-.508-.066-.078-.142.007-.719.684-.612.747-.13.254-.238.113-.036.084-.22.093-.247-.032-.212-.238.164-.683-.024-.45.076-.114-.072-.573-.064-.066-.008-.15-.133-.213-.157.008-.802.633-.404.447-.09.183-.175.174.054.643.187.458.079.34-.056.102-.159.078-.201-.017-.317-.216-.121-.407-.117-.31-.024-.47-.193-.182-.025-.1-.004-.063.168-.297-.061-1.166-.097-.311-.085-.065-.007-.136.375-.24.181-.037.183-.01.083.037.108 1.286.022.026.122-.006.678-.655.18-.078.333-.238.403-.09.43.032.338.37.132.594-.047.649.125.062.059-.003.407-.393.347-.362.587-.484.176-.133.2-.01.332.106.084.065.107.131.11.53-.013 1.197.055 1.06Z"/></svg>