<svg xmlns="http://www.w3.org/2000/svg" width="97" height="96"><g data-name="グループ 13492" transform="translate(-23 -1948)"><ellipse data-name="楕円形 3" cx="48.5" cy="48" rx="48.5" ry="48" transform="translate(23 1948)" fill="#fff600"/><path data-name="パス 2304" d="M46.68 1975h-1.274l-2.306-3.52a5.089 5.089 0 0 1-.281-.465H42.8q.031.3.031.906V1975h-1.19v-5.6H43l2.223 3.41q.152.23.281.457h.016a5.989 5.989 0 0 1-.031-.77v-3.097h1.191Zm3.648.1a2.607 2.607 0 0 1-1.961-.786 2.812 2.812 0 0 1-.758-2.041 3.013 3.013 0 0 1 .77-2.148 2.664 2.664 0 0 1 2.039-.825 2.542 2.542 0 0 1 1.939.785 2.9 2.9 0 0 1 .74 2.07 2.965 2.965 0 0 1-.767 2.134 2.634 2.634 0 0 1-2.002.811Zm.055-4.707a1.27 1.27 0 0 0-1.055.5 2.077 2.077 0 0 0-.391 1.318 2.038 2.038 0 0 0 .391 1.316 1.252 1.252 0 0 0 1.023.484 1.264 1.264 0 0 0 1.035-.471 2.016 2.016 0 0 0 .384-1.31 2.185 2.185 0 0 0-.37-1.355 1.21 1.21 0 0 0-1.017-.484Zm8.242 4.232a4.031 4.031 0 0 1-2.039.475 2.949 2.949 0 0 1-2.131-.75 2.721 2.721 0 0 1-.779-2.061 2.877 2.877 0 0 1 .852-2.152 3.1 3.1 0 0 1 2.265-.837 4.6 4.6 0 0 1 1.57.246v1.184a3.121 3.121 0 0 0-1.586-.375 1.7 1.7 0 0 0-1.279.51 1.873 1.873 0 0 0-.498 1.365 1.878 1.878 0 0 0 .443 1.336 1.563 1.563 0 0 0 1.2.473 1.667 1.667 0 0 0 .719-.129v-1.094h-1.12v-1.007h2.383Zm6.016.375h-1.375l-.4-1.246h-1.991L60.48 1975h-1.367l2.039-5.6h1.5Zm-2.063-2.215-.6-1.883a2.453 2.453 0 0 1-.094-.5h-.031a2.137 2.137 0 0 1-.1.488l-.609 1.9Zm9.145 2.215h-1.246v-3.352q0-.543.047-1.2h-.031a5.9 5.9 0 0 1-.176.742L69 1975h-1.027l-1.336-3.77a7.335 7.335 0 0 1-.176-.781h-.035q.051.828.051 1.453V1975H65.34v-5.6h1.848l1.145 3.32a4.675 4.675 0 0 1 .2.8h.023a8.063 8.063 0 0 1 .223-.809l1.143-3.311h1.8Zm2.535 0H73v-5.6h1.262Zm6.719-4.574H79v1.374h1.816v1.023H79V1975h-1.262v-5.6h3.238Zm5.414 4.574h-1.375l-.4-1.246h-1.991L82.23 1975h-1.367l2.037-5.6h1.5Zm-2.063-2.215-.6-1.883a2.454 2.454 0 0 1-.094-.5H83.6a2.137 2.137 0 0 1-.1.488l-.609 1.9Zm7.461 2.215H90.34l-.871-1.441q-.1-.164-.187-.293a1.627 1.627 0 0 0-.182-.221.722.722 0 0 0-.191-.141.486.486 0 0 0-.217-.049h-.34V1975H87.09v-5.6h2q2.039 0 2.039 1.523a1.578 1.578 0 0 1-.09.541 1.5 1.5 0 0 1-.254.447 1.609 1.609 0 0 1-.4.344 2.045 2.045 0 0 1-.518.227v.018a.8.8 0 0 1 .242.127 1.734 1.734 0 0 1 .227.205 2.861 2.861 0 0 1 .209.252q.1.135.182.264Zm-3.437-4.656v1.556h.548a.907.907 0 0 0 .652-.234.782.782 0 0 0 .25-.59q0-.734-.879-.734ZM98.7 1975h-1.251v-3.352q0-.543.047-1.2h-.031a5.9 5.9 0 0 1-.176.742l-1.312 3.81h-1.032l-1.336-3.77a7.336 7.336 0 0 1-.176-.781H93.4q.051.828.051 1.453V1975h-1.138v-5.6h1.847l1.14 3.319a4.675 4.675 0 0 1 .2.8h.023a8.063 8.063 0 0 1 .223-.809l1.149-3.31h1.8Zm-52.493 45.574q0 2.523-2.352 2.523-2.281.003-2.281-2.464v-3.233h1.266v3.25q0 1.359 1.063 1.359 1.043 0 1.043-1.312v-3.297h1.261Zm2.48.5V2023h-1.261v-5.6H49.4q2.117 0 2.117 1.785a1.713 1.713 0 0 1-.607 1.365 2.406 2.406 0 0 1-1.623.521Zm0-2.7v1.746h.5q1.008 0 1.008-.883 0-.863-1.008-.863Zm8.501 4.626h-1.266v-2.281H53.6V2023h-1.26v-5.6h1.26v2.234h2.32v-2.234h1.266Zm2.543 0h-1.262v-5.6h1.261Zm4.609 0H61v-5.6h1.262v4.578h2.078Zm4.09 0h-3.336v-5.6h1.262v4.578h2.074Zm2.7-.215v-1.25a2.4 2.4 0 0 0 .738.428 2.373 2.373 0 0 0 .8.143 1.785 1.785 0 0 0 .416-.043.974.974 0 0 0 .3-.119.52.52 0 0 0 .178-.18.448.448 0 0 0 .059-.225.486.486 0 0 0-.094-.293 1.009 1.009 0 0 0-.256-.238 2.673 2.673 0 0 0-.385-.211q-.223-.1-.48-.207a2.452 2.452 0 0 1-.979-.668 1.458 1.458 0 0 1-.322-.953 1.518 1.518 0 0 1 .176-.752 1.493 1.493 0 0 1 .479-.518 2.146 2.146 0 0 1 .7-.3 3.6 3.6 0 0 1 .844-.1 5.075 5.075 0 0 1 .775.053 3.049 3.049 0 0 1 .623.162v1.168a1.884 1.884 0 0 0-.307-.172 2.429 2.429 0 0 0-.342-.123 2.607 2.607 0 0 0-.35-.072 2.474 2.474 0 0 0-.33-.023 1.721 1.721 0 0 0-.391.041 1 1 0 0 0-.3.115.573.573 0 0 0-.187.178.421.421 0 0 0-.066.232.444.444 0 0 0 .074.252.851.851 0 0 0 .211.211 2.238 2.238 0 0 0 .332.2q.2.1.441.2a4.919 4.919 0 0 1 .6.3 2.146 2.146 0 0 1 .459.357 1.392 1.392 0 0 1 .293.455 1.817 1.817 0 0 1-.076 1.383 1.443 1.443 0 0 1-.482.516 2.092 2.092 0 0 1-.709.283 4.1 4.1 0 0 1-.854.086 4.746 4.746 0 0 1-.877-.078 2.647 2.647 0 0 1-.708-.238Zm8.676-4.359h-1.6V2023h-1.261v-4.574h-1.59v-1.026h4.453Zm2.827 4.674a2.607 2.607 0 0 1-1.961-.783 2.812 2.812 0 0 1-.758-2.041 3.013 3.013 0 0 1 .77-2.148 2.664 2.664 0 0 1 2.039-.82 2.542 2.542 0 0 1 1.939.785 2.9 2.9 0 0 1 .74 2.07 2.965 2.965 0 0 1-.768 2.129 2.634 2.634 0 0 1-2.001.808Zm.055-4.707a1.27 1.27 0 0 0-1.055.5 2.077 2.077 0 0 0-.391 1.318 2.038 2.038 0 0 0 .391 1.316 1.252 1.252 0 0 0 1.023.484 1.264 1.264 0 0 0 1.035-.471 2.016 2.016 0 0 0 .383-1.307 2.185 2.185 0 0 0-.371-1.355 1.21 1.21 0 0 0-1.015-.487Zm8.343 4.607h-1.449l-.871-1.441q-.1-.164-.187-.293a1.628 1.628 0 0 0-.182-.221.722.722 0 0 0-.191-.141.486.486 0 0 0-.217-.049h-.34V2023h-1.262v-5.6h2q2.039 0 2.039 1.523a1.578 1.578 0 0 1-.09.541 1.5 1.5 0 0 1-.254.447 1.609 1.609 0 0 1-.4.344 2.045 2.045 0 0 1-.518.227v.018a.8.8 0 0 1 .242.127 1.734 1.734 0 0 1 .227.205 2.861 2.861 0 0 1 .209.252q.1.135.182.264Zm-3.437-4.656v1.556h.547a.907.907 0 0 0 .652-.234.782.782 0 0 0 .25-.59q0-.734-.879-.734Zm7.32 4.656h-3.359v-5.6h3.23v1.027h-1.969v1.246h1.832v1.027h-1.832v1.281h2.1Z" fill="#143a98"/><path data-name="パス 2303" d="M58.5 1981.913V2008h-5.946l-3.529-11.859V2008h-5.671v-26.087h5.671l3.8 11.747v-11.747Zm21.444 0v17.434a30.256 30.256 0 0 1-.193 4.165 5.654 5.654 0 0 1-1.144 2.465 5.937 5.937 0 0 1-2.507 1.923 9.43 9.43 0 0 1-3.666.653 10.312 10.312 0 0 1-4.124-.779 6.208 6.208 0 0 1-2.675-2.014 5.579 5.579 0 0 1-1.047-2.618q-.161-1.378-.161-5.793v-15.436h6.783v19.561a7.716 7.716 0 0 0 .19 2.183.726.726 0 0 0 .749.475.784.784 0 0 0 .83-.524 9.751 9.751 0 0 0 .185-2.473v-19.222Zm20.3 7.9h-6.3v-1.934a3.793 3.793 0 0 0-.244-1.729.889.889 0 0 0-.806-.371 1.026 1.026 0 0 0-.927.5 2.9 2.9 0 0 0-.314 1.516 4.3 4.3 0 0 0 .353 1.967 5.124 5.124 0 0 0 1.917 1.595q4.53 2.688 5.706 4.413t1.176 5.559a9.753 9.753 0 0 1-.653 4.109 5.112 5.112 0 0 1-2.519 2.216 9.974 9.974 0 0 1-4.351.894 9.727 9.727 0 0 1-4.649-1.031 5.058 5.058 0 0 1-2.521-2.627 13.465 13.465 0 0 1-.6-4.528v-1.708h6.3v3.174a4.179 4.179 0 0 0 .266 1.885 1.028 1.028 0 0 0 .943.419 1.1 1.1 0 0 0 1.01-.532 3.034 3.034 0 0 0 .33-1.579 4.893 4.893 0 0 0-.628-3.013 20.031 20.031 0 0 0-3.174-2.369 31.228 31.228 0 0 1-3.352-2.433 5.693 5.693 0 0 1-1.362-2.095 9.218 9.218 0 0 1-.54-3.416 9.477 9.477 0 0 1 .765-4.383 5.151 5.151 0 0 1 2.473-2.167 9.866 9.866 0 0 1 4.125-.781 10.747 10.747 0 0 1 4.5.854 4.715 4.715 0 0 1 2.465 2.151 11.389 11.389 0 0 1 .6 4.407Z" fill="#143a98"/></g></svg>