<svg xmlns="http://www.w3.org/2000/svg" width="88.825" height="35.842"><path data-name="パス 3" d="M24.007 1.916a1.362 1.362 0 0 1-.768-.42q.012.18.012.372a8.991 8.991 0 0 1-.384 2.34 8.845 8.845 0 0 1-1.158 2.548q-.774 1.16-1.578 1.16a1.522 1.522 0 0 1-1.158-.524 3.444 3.444 0 0 1-.738-1.38 12.842 12.842 0 0 1-.454-3.496 30.95 30.95 0 0 1-1.586 3.58q-1.272 2.256-2.448 2.62a1.792 1.792 0 0 1-.54.1 1.64 1.64 0 0 1-.42-.048.887.887 0 0 1-.612-.672.556.556 0 0 1-.012-.108.754.754 0 0 1 .012-.12q.012-.072.072-.042t.12.222a.536.536 0 0 0 .42.408 1.4 1.4 0 0 0 .4.06 1.169 1.169 0 0 0 .372-.06 4.67 4.67 0 0 0 2.28-2.412 24.627 24.627 0 0 0 1.58-4.228 2.5 2.5 0 0 1-1.56.66q-.12.012-.126-.084t.138-.12a1.915 1.915 0 0 0 1.068-.54 3.219 3.219 0 0 0 .828-1.128q.048-.156.42-.15t.36.15a3.8 3.8 0 0 0-.108.636 8.42 8.42 0 0 0-.06 1 11.791 11.791 0 0 0 .66 3.972q.468 1.304 1.188 1.304t1.344-1.26a9.686 9.686 0 0 0 .858-2.5 10.965 10.965 0 0 0 .234-1.734 4.222 4.222 0 0 0-.048-.744 10.483 10.483 0 0 0-.324-1.05q-.012-.036.084-.126a.414.414 0 0 1 .144-.1.544.544 0 0 1 .426.276 6.375 6.375 0 0 1 .4.648q.348.672.648.672l.144-.036a.127.127 0 0 1 .132.12.2.2 0 0 1-.084.162.361.361 0 0 1-.178.072Zm3.192 3.876a1.741 1.741 0 0 0 .216-.676 1.067 1.067 0 0 0-.054-.378.2.2 0 0 1 .048-.234.292.292 0 0 1 .258-.072q.24.06.24.54a2.4 2.4 0 0 1-.564 1.26.3.3 0 0 0 .338.32q.324 0 .984-.7.312-.36.39-.468t.138-.078q.06.03.06.054a1.842 1.842 0 0 1-.432.624q-.684.84-1.212.84a.5.5 0 0 1-.492-.3q-.24.252-.468.468a1.576 1.576 0 0 1-1.044.4.9.9 0 0 1-.54-.156.962.962 0 0 1-.42-.9 2.621 2.621 0 0 1 .48-1.44 3.48 3.48 0 0 1 .648-.756 1.742 1.742 0 0 1 1.116-.516.872.872 0 0 1 .252.036.457.457 0 0 1 .36.456q0 .276-.144.276-.06-.024-.06-.18 0-.216-.24-.216-.42 0-1.08.768a3.225 3.225 0 0 0-.796 1.552 1.65 1.65 0 0 0-.024.294.834.834 0 0 0 .108.372.41.41 0 0 0 .4.21 1.093 1.093 0 0 0 .642-.264 2.806 2.806 0 0 0 .624-.672l-.036-.072a.342.342 0 0 1 .048-.312.215.215 0 0 1 .256-.076Zm2.016 5.892a1.025 1.025 0 0 1-.24-.036q-.612-.156-.612-.642a2.093 2.093 0 0 1 .63-1.218 14.367 14.367 0 0 1 2.658-2.072 23.088 23.088 0 0 0 1.2-2.8q-.672.816-.96 1.128-1.08 1.2-1.74 1.2a.913.913 0 0 1-.414-.114 1.084 1.084 0 0 1-.378-.324.741.741 0 0 1-.156-.45 2.127 2.127 0 0 1 .888-1.428 6.545 6.545 0 0 1 1.104-.812 3.838 3.838 0 0 1 .912-.42 2.669 2.669 0 0 1 .648-.084.939.939 0 0 1 .552.168q.24.168.24.336 0 .1-.1.06-.132-.228-.582-.228a2.273 2.273 0 0 0-1.02.294 5.029 5.029 0 0 0-1.026.7 4.108 4.108 0 0 0-.774.912 1.7 1.7 0 0 0-.318.75q0 .42.24.42a2.074 2.074 0 0 0 1.032-.552 12.657 12.657 0 0 0 1.982-1.956q.156-.228.648.012.192.1.156.168-.156.348-.57 1.206t-.618 1.29a6.131 6.131 0 0 0 .942-.726 11.525 11.525 0 0 0 1.17-1.17q.264-.312.264-.1 0 .3-1.44 1.584a8.026 8.026 0 0 1-1.174.936q-1.02 2.1-1.368 2.64-.9 1.332-1.776 1.332Zm2.208-3.516a20.057 20.057 0 0 0-2.064 1.71 1.768 1.768 0 0 0-.624 1.182.267.267 0 0 0 .108.24.4.4 0 0 0 .228.072.675.675 0 0 0 .348-.18 3.471 3.471 0 0 0 .39-.354q.162-.174.282-.324a4.6 4.6 0 0 0 .27-.384l.234-.366q.084-.132.234-.414l.2-.384q.054-.1.2-.414t.194-.38Zm4.3-.924a.913.913 0 0 1-.418-.11 1.084 1.084 0 0 1-.378-.324.741.741 0 0 1-.156-.45 1.006 1.006 0 0 1 .11-.456 3.14 3.14 0 0 1 .774-.978 6.945 6.945 0 0 1 1.108-.81 3.838 3.838 0 0 1 .912-.42 2.692 2.692 0 0 1 .654-.08.918.918 0 0 1 .546.162.441.441 0 0 1 .228.338.125.125 0 0 1-.012.072q-.012.012-.06-.012a.654.654 0 0 0-.594-.228 2.273 2.273 0 0 0-1.02.294 5.293 5.293 0 0 0-1.074.738 4.7 4.7 0 0 0-.738.894 1.646 1.646 0 0 0-.318.726q0 .444.252.444a1.537 1.537 0 0 0 .768-.408 15.067 15.067 0 0 0 1.164-1.056 9.339 9.339 0 0 1 1.188-1.188.946.946 0 0 1 .348.084q.2.084.132.2a3.82 3.82 0 0 0-.72 1.74 2.586 2.586 0 0 0-.012.276.4.4 0 0 0 .1.276q.18.192.492.024a5.072 5.072 0 0 0 .87-.672 5.959 5.959 0 0 0 .894-.984.081.081 0 0 1 .108-.03q.06.03.06.054 0 .18-.57.786a7.044 7.044 0 0 1-.87.822 1.794 1.794 0 0 1-1.044.42.6.6 0 0 1-.616-.452 1.338 1.338 0 0 1-.036-.32 3.211 3.211 0 0 1 .228-1.14 4.64 4.64 0 0 0-.444.48 7.132 7.132 0 0 1-.918.876 1.574 1.574 0 0 1-.942.416Zm7.052-3.248a1.219 1.219 0 0 1-.132.366q-.132.282-.756 1.938.432-.528 1.094-1.224 1.33-1.392 1.834-1.392a.409.409 0 0 1 .21.06q.1.06.1.27a1.044 1.044 0 0 1-.132.468q-.132.258-.3.63t-.228.468a5.931 5.931 0 0 1 1.526-1.11 2.524 2.524 0 0 1 .684-.2q.168 0 .168.12a1.039 1.039 0 0 1-.18.348 4.877 4.877 0 0 0-.4.816 3.516 3.516 0 0 0-.24.756 3.519 3.519 0 0 0-.024.384.4.4 0 0 0 .1.276q.18.192.492.024a5.072 5.072 0 0 0 .87-.672 5.959 5.959 0 0 0 .894-.984.087.087 0 0 1 .114-.03q.066.03.066.06a.122.122 0 0 1-.024.066 4.676 4.676 0 0 1-.648.828 3.857 3.857 0 0 1-1.282 1.022 1.053 1.053 0 0 1-.816.048.632.632 0 0 1-.314-.324 1.133 1.133 0 0 1-.06-.36 3.06 3.06 0 0 1 .222-1.132 4.953 4.953 0 0 1 .354-.768 2.794 2.794 0 0 0-.78.48 10.911 10.911 0 0 0-.792.756l-.24.264a.452.452 0 0 1-.378.3q-.27.036-.258-.18a4.092 4.092 0 0 1 .444-1.02 5.108 5.108 0 0 0 .418-.878q0-.09-.1-.09-.216 0-.78.492a11.288 11.288 0 0 0-1.092 1.314 9.54 9.54 0 0 1-.822 1.03 1.894 1.894 0 0 1-.54.216q-.108 0-.108-.036a.276.276 0 0 1 .036-.112q.036-.068.732-2.088a3.88 3.88 0 0 1-.48.624q-.1.108-.1-.042a.408.408 0 0 1 .088-.262 8.413 8.413 0 0 0 .792-1.2q.072-.42.288-.492a.5.5 0 0 1 .306 0q.174.052.174.172Zm7.188-.2q.3 0 .36.192a.3.3 0 0 1-.03.21q-.054.1-.078.162t-.036.1q-.06.12-.12.228a7.386 7.386 0 0 0-.72 1.728 2.586 2.586 0 0 0-.012.276.4.4 0 0 0 .1.276q.168.192.48.024a5.072 5.072 0 0 0 .87-.672 6.466 6.466 0 0 0 .904-.98.081.081 0 0 1 .108-.03q.06.03.06.06a.122.122 0 0 1-.024.066 4.676 4.676 0 0 1-.648.828 3.857 3.857 0 0 1-1.286 1.02 1.545 1.545 0 0 1-.5.108.617.617 0 0 1-.64-.456.751.751 0 0 1-.024-.2 3.527 3.527 0 0 1 .384-1.276 3.86 3.86 0 0 1-.468.6q-.108.12-.168 0a.15.15 0 0 1-.012-.066.178.178 0 0 1 .048-.1q.588-.732.924-1.236a.194.194 0 0 1 .024-.156q.24-.672.42-.708Zm.948-1.6-.1.384a.787.787 0 0 1-.156.348q-.156.24-.24.24-.516 0-.516-.252a2.541 2.541 0 0 1 .516-.444l.2-.156q.192-.168.24-.168a.042.042 0 0 1 .056.048Zm.654 8.814a.263.263 0 0 1-.06.078q-.03.024-.246.144a.82.82 0 0 1-.39.12q-.174 0-.174-.084a.277.277 0 0 1 .024-.1q.216-.408 2.22-5.532a4.773 4.773 0 0 1-.552.048.454.454 0 0 1-.282-.078.245.245 0 0 1-.1-.2q0-.126.27-.228a1.289 1.289 0 0 1 .414-.1.326.326 0 0 1 .24.1q.1.1.132.1h.036l.348-.888q.216-.6.66-1.566a14.128 14.128 0 0 1 .8-1.542Q55.705.07 56.513.07l.288.036.24.084a.623.623 0 0 1 .348.558 1.8 1.8 0 0 1-.192.762 8.3 8.3 0 0 1-1.316 1.806 16.431 16.431 0 0 1-1.92 1.86q.984-.084 1.266-.084t.294.072q0 .048-.228.114t-1.848.306a27.222 27.222 0 0 0-1.454 4.148 1.388 1.388 0 0 1-.054.378q-.042.114-.1.264t-.09.228l-.066.174a1.042 1.042 0 0 1-.06.138Zm5.3-9.678a1.312 1.312 0 0 0 .2-.66q0-.312-.228-.312-.456 0-1.3 1.176a15.767 15.767 0 0 0-.876 1.38 15.29 15.29 0 0 0-.98 2.1l-.1.192a10.592 10.592 0 0 0 1.788-1.776 15.341 15.341 0 0 0 1.494-2.1Zm-.11 5.916a.913.913 0 0 1-.414-.114 1.084 1.084 0 0 1-.378-.324.741.741 0 0 1-.156-.45 1.006 1.006 0 0 1 .108-.456 3.14 3.14 0 0 1 .774-.978 6.945 6.945 0 0 1 1.11-.81 3.838 3.838 0 0 1 .912-.42 2.692 2.692 0 0 1 .654-.084.918.918 0 0 1 .546.162.441.441 0 0 1 .228.342.125.125 0 0 1-.012.072q-.012.012-.06-.012a.654.654 0 0 0-.594-.228 2.273 2.273 0 0 0-1.02.294 5.293 5.293 0 0 0-1.074.738 4.7 4.7 0 0 0-.738.894 1.646 1.646 0 0 0-.318.726q0 .444.252.444a1.537 1.537 0 0 0 .768-.408 15.067 15.067 0 0 0 1.164-1.056 9.339 9.339 0 0 1 1.188-1.188.946.946 0 0 1 .348.084q.2.084.132.2a3.82 3.82 0 0 0-.72 1.74 2.586 2.586 0 0 0-.012.276.4.4 0 0 0 .1.276q.18.192.492.024a5.072 5.072 0 0 0 .87-.672 5.959 5.959 0 0 0 .894-.984.081.081 0 0 1 .108-.03q.06.03.06.054 0 .18-.57.786a7.044 7.044 0 0 1-.87.822 1.794 1.794 0 0 1-1.046.424.6.6 0 0 1-.612-.456 1.338 1.338 0 0 1-.038-.32 3.211 3.211 0 0 1 .228-1.14 4.64 4.64 0 0 0-.444.48 7.132 7.132 0 0 1-.918.876 1.574 1.574 0 0 1-.942.416Zm7.068.168q-.612 0-.612-.738a2.966 2.966 0 0 1 1.056-1.818 1.371 1.371 0 0 0 .12-.132l.084-.12q.168-.228.156-.288l-.036-.104q-.048-.144-.4-.21a3.17 3.17 0 0 0-.564-.066q-1.076 1.52-1.246 1.736t-.228.18a.1.1 0 0 1-.06-.084.291.291 0 0 1 .072-.144 9.821 9.821 0 0 0 1.116-1.692.366.366 0 0 1-.216-.1q-.072-.078-.012-.264a1.5 1.5 0 0 1 .366-.5 2.034 2.034 0 0 1 .534-.42q.228-.108.288-.132a.352.352 0 0 1 .132-.024q.144 0-.1.432l-.468.744q.54.036.924.036l.42-.012a.636.636 0 0 1 .3.054q.1.054.048.186a2.244 2.244 0 0 1-.42.612 6.036 6.036 0 0 0-1.074 1.788 1.174 1.174 0 0 0-.084.4q0 .348.252.348a.86.86 0 0 0 .318-.132 5.536 5.536 0 0 0 .786-.63 5.9 5.9 0 0 0 .888-.978.087.087 0 0 1 .114-.03q.066.03.066.06a.122.122 0 0 1-.024.066 4.676 4.676 0 0 1-.648.828 5.887 5.887 0 0 1-.912.816 1.494 1.494 0 0 1-.936.332Zm4.368-3.42a1.219 1.219 0 0 1-.132.366q-.132.282-.756 1.938.432-.528 1.092-1.224 1.332-1.392 1.836-1.392a.409.409 0 0 1 .21.06q.1.06.1.27a1.044 1.044 0 0 1-.132.468q-.132.258-.3.63t-.228.468a5.931 5.931 0 0 1 1.524-1.11 2.524 2.524 0 0 1 .684-.2q.168 0 .168.12a1.039 1.039 0 0 1-.18.348 4.877 4.877 0 0 0-.4.816 3.516 3.516 0 0 0-.24.756 3.519 3.519 0 0 0-.024.384.4.4 0 0 0 .1.276q.18.192.492.024a5.072 5.072 0 0 0 .87-.672 5.959 5.959 0 0 0 .894-.984.087.087 0 0 1 .114-.03q.066.03.066.06a.122.122 0 0 1-.024.066 4.676 4.676 0 0 1-.648.828 3.857 3.857 0 0 1-1.282 1.022 1.053 1.053 0 0 1-.814.048.632.632 0 0 1-.312-.324 1.132 1.132 0 0 1-.06-.36 3.06 3.06 0 0 1 .22-1.132 4.954 4.954 0 0 1 .354-.768 2.794 2.794 0 0 0-.78.48 10.91 10.91 0 0 0-.792.756l-.24.264a.452.452 0 0 1-.378.3q-.27.036-.258-.18a4.092 4.092 0 0 1 .444-1.02 5.108 5.108 0 0 0 .42-.882q0-.09-.1-.09-.216 0-.78.492a11.288 11.288 0 0 0-1.1 1.314 9.54 9.54 0 0 1-.816 1.034 1.894 1.894 0 0 1-.54.216q-.108 0-.108-.036a.276.276 0 0 1 .036-.112q.036-.072.732-2.088a3.88 3.88 0 0 1-.48.624q-.1.108-.1-.042a.408.408 0 0 1 .088-.262 8.413 8.413 0 0 0 .792-1.2q.072-.42.288-.492a.5.5 0 0 1 .306 0q.174.052.174.172ZM1.957 29.724q-1.349 0-1.349-1.748a12.608 12.608 0 0 1 1.573-4.826q.855-1.767 1.016-2.138t.009-.352a1.462 1.462 0 0 0-.437.247 4.839 4.839 0 0 1-2.584 1.33q-.19.019-.19-.095a.272.272 0 0 1 .247-.209 5.181 5.181 0 0 0 2.213-1.264 7.688 7.688 0 0 0 1.782-1.753q.076-.228.722-.228.494.038.475.228-3.268 5.51-3.705 7.866a5.466 5.466 0 0 0-.1.95q0 1.33.95 1.33 1.558 0 4.6-2.945 1.273-8.284 4.066-8.284.988 0 1.235.646a1.6 1.6 0 0 1 .114.6 1.807 1.807 0 0 1-.133.655 7.973 7.973 0 0 1-1 2.062 27.451 27.451 0 0 1-1.932 2.52q-1.245 1.472-1.473 1.777a22.332 22.332 0 0 0-.342 3.4v.209a4.07 4.07 0 0 0 .627 2.565.72.72 0 0 0 .5.3.551.551 0 0 0 .427-.228 1.671 1.671 0 0 1 .237-.294q.143-.143.228-.1t.028.237a2.9 2.9 0 0 1-.247.361 1.292 1.292 0 0 1-1.064.38h-.133q-1.1-.019-1.406-1.862a13.012 13.012 0 0 1-.076-1.587 19.643 19.643 0 0 1 .247-2.689q-3.035 2.939-5.125 2.939Zm9.918-10.3a2.358 2.358 0 0 0 .1-.627.528.528 0 0 0-.124-.4.36.36 0 0 0-.237-.114q-.266 0-.7.475a12.778 12.778 0 0 0-2.546 6.118 15.122 15.122 0 0 0 2.113-2.581 9.855 9.855 0 0 0 1.394-2.869Zm5.586 5.738a2.755 2.755 0 0 1-.684 1.7 7.488 7.488 0 0 1-1.615 1.51 8.038 8.038 0 0 1-1.739.855 4.551 4.551 0 0 1-1.33.3 2.356 2.356 0 0 1-.732-.095q-.418.969-1.159 3.249a2.338 2.338 0 0 0-.085.618 3.612 3.612 0 0 1-.228 1.007 6.637 6.637 0 0 1-.427 1.017q-.1.228-.551.37a2.556 2.556 0 0 1-.646.142.168.168 0 0 1-.19-.19.577.577 0 0 1 .057-.209q.874-1.786 2.2-5.253t1.463-3.847q.133-.38.38-1.1a7.757 7.757 0 0 0 .456-1.824q0-.228.608-.228t.608.437a1.9 1.9 0 0 1-.371.9 17.752 17.752 0 0 0-1.093 2.309 9.36 9.36 0 0 1 1.786-2.185 2.838 2.838 0 0 1 1.767-.741 2.152 2.152 0 0 1 .684.114 1.074 1.074 0 0 1 .817.855 2.3 2.3 0 0 1 .024.291Zm-.931-.266q0-.665-.513-.665a2.542 2.542 0 0 0-.988.361 5.391 5.391 0 0 0-1.368 1.083 7.556 7.556 0 0 0-1.055 1.358q-.37.637-.694 1.311t-.38.788a4.455 4.455 0 0 0 2.549-1.004 7.271 7.271 0 0 0 2.071-2.185 2 2 0 0 0 .378-1.045Zm9.462-6.9a1.672 1.672 0 0 1 .589-.133 1.171 1.171 0 0 1 1.1.456.753.753 0 0 1 .152.4q0 1.292-2.166 3.249-1.919 1.691-3.534 2.907a31.183 31.183 0 0 0-1.1 2.945q.684-.836 1.729-1.938 2.109-2.185 2.945-2.185a.389.389 0 0 1 .437.418 1.446 1.446 0 0 1-.181.836q-.218.4-.409.741a5.27 5.27 0 0 0-.893 2.641.818.818 0 0 0 .152.551q.266.3.76.038a8.031 8.031 0 0 0 1.377-1.064 10.237 10.237 0 0 0 1.435-1.558q.095-.1.181-.048t.085.1a.193.193 0 0 1-.038.1 7.181 7.181 0 0 1-1.026 1.3 10.274 10.274 0 0 1-1.2 1.13 2.8 2.8 0 0 1-1.672.665.954.954 0 0 1-.969-.722 1.3 1.3 0 0 1-.057-.409 3.567 3.567 0 0 1 .038-.5 8.21 8.21 0 0 1 1.007-2.489 1.238 1.238 0 0 0 .19-.484q0-.142-.152-.142-.3 0-1.178.76a17.872 17.872 0 0 0-1.738 2.08 15.1 15.1 0 0 1-1.3 1.625 3.066 3.066 0 0 1-.846.342q-.161 0-.181-.047a.154.154 0 0 1 .019-.124q.038-.076.3-.836.893-2.527 1.216-3.344-.627.8-1.558 1.805-.152.152-.152-.066a.747.747 0 0 1 .171-.447q.171-.228.713-.883t.769-.979a.315.315 0 0 1-.181-.266.23.23 0 0 1 .114-.237.523.523 0 0 1 .409.048 3.778 3.778 0 0 0 .342-.589q2.268-4.863 4.301-5.642Zm1.064 1.425a1.7 1.7 0 0 0 .247-.769q0-.314-.276-.314a1.377 1.377 0 0 0-.731.342 13.678 13.678 0 0 0-3.781 5.339 16.542 16.542 0 0 0 2.584-2.128 10.688 10.688 0 0 0 1.957-2.465Zm3.857 4.427q.475 0 .57.3a.472.472 0 0 1-.047.333q-.086.161-.124.257t-.057.152l-.19.361a11.694 11.694 0 0 0-1.14 2.755 4.1 4.1 0 0 0-.019.437.633.633 0 0 0 .152.437q.266.3.76.038a8.031 8.031 0 0 0 1.377-1.064 10.237 10.237 0 0 0 1.435-1.558.128.128 0 0 1 .171-.048q.1.048.1.1a.193.193 0 0 1-.038.1 7.4 7.4 0 0 1-1.026 1.311 6.107 6.107 0 0 1-2.033 1.615 2.446 2.446 0 0 1-.8.171.977.977 0 0 1-1.007-.722 1.189 1.189 0 0 1-.038-.323 5.585 5.585 0 0 1 .608-2.014 6.112 6.112 0 0 1-.741.95q-.171.19-.266 0a.237.237 0 0 1-.019-.1.281.281 0 0 1 .076-.161q.928-1.159 1.464-1.959a.307.307 0 0 1 .038-.247q.38-1.064.665-1.121Zm1.5-2.527-.152.608a1.247 1.247 0 0 1-.247.551q-.247.38-.38.38-.817 0-.817-.4a4.024 4.024 0 0 1 .817-.7l.323-.247q.3-.266.38-.266a.067.067 0 0 1 .077.079Zm8.512-1.9a1.513 1.513 0 0 0 .228-.646q0-.4-.323-.4a1.2 1.2 0 0 0-.665.3 12.189 12.189 0 0 0-2.944 3.734 25.361 25.361 0 0 0-1.672 3.515 14.67 14.67 0 0 0 2.932-2.908 22.194 22.194 0 0 0 2.445-3.59Zm-5.662 7.258a4.523 4.523 0 0 0-.247.864q-.019.219-.019.589a1.247 1.247 0 0 0 .19.674q.323.513 1.083.076a7.626 7.626 0 0 0 1.445-1.106 10.01 10.01 0 0 0 1.349-1.472.128.128 0 0 1 .114-.057q.171 0 .095.247a6.968 6.968 0 0 1-1.055 1.311 11.677 11.677 0 0 1-1.4 1.264 2.1 2.1 0 0 1-1.254.465 1.26 1.26 0 0 1-1.444-1.406v-.112a12.389 12.389 0 0 1 1.349-4.019 24.514 24.514 0 0 1 2.3-4.056l.589-.741a6.778 6.778 0 0 1 .608-.608 2.277 2.277 0 0 1 1.568-.722 1.151 1.151 0 0 1 1.093.494 1.035 1.035 0 0 1 .095.494 2.32 2.32 0 0 1-.285.912 26.693 26.693 0 0 1-6.173 6.914Zm11.078-7.253a1.513 1.513 0 0 0 .228-.646q0-.4-.323-.4a1.2 1.2 0 0 0-.665.3 12.189 12.189 0 0 0-2.945 3.724 25.361 25.361 0 0 0-1.672 3.515 14.67 14.67 0 0 0 2.935-2.903 22.194 22.194 0 0 0 2.442-3.59Zm-5.66 7.258a4.523 4.523 0 0 0-.247.864q-.019.219-.019.589a1.247 1.247 0 0 0 .19.674q.323.513 1.083.076a7.626 7.626 0 0 0 1.442-1.111 10.01 10.01 0 0 0 1.351-1.472.128.128 0 0 1 .114-.057q.171 0 .095.247a6.968 6.968 0 0 1-1.057 1.311 11.677 11.677 0 0 1-1.4 1.264 2.1 2.1 0 0 1-1.254.465 1.26 1.26 0 0 1-1.444-1.406v-.112a12.389 12.389 0 0 1 1.349-4.019 24.514 24.514 0 0 1 2.3-4.056l.589-.741a6.778 6.778 0 0 1 .608-.61 2.277 2.277 0 0 1 1.568-.722 1.151 1.151 0 0 1 1.093.494 1.035 1.035 0 0 1 .095.494 2.32 2.32 0 0 1-.285.912 26.693 26.693 0 0 1-6.171 6.916Zm21.09-7.6a1.908 1.908 0 0 1-.342.969 1.706 1.706 0 0 1-.637.7q-.351.19-.351-.038a1.482 1.482 0 0 1 .209-.228q.627-.589.627-.969 0-.817-1.615-.817a8.517 8.517 0 0 0-1.805.257 8.437 8.437 0 0 0-2.166.826q-1.216.665-1.216 1.159 0 .4.741.76.4.19 1.586.636t1.919.779a5.218 5.218 0 0 1 1.387.94 1.813 1.813 0 0 1 .656 1.349 2.432 2.432 0 0 1-.874 1.615 10.588 10.588 0 0 1-3.458 2.118 10.191 10.191 0 0 1-3.648.846q-3 0-3-1.691a3.39 3.39 0 0 1 1.843-2.869 5.548 5.548 0 0 1 3.192-1.045q.4 0 .361.133t-.57.142a3.915 3.915 0 0 0-1.368.361 5.365 5.365 0 0 0-1.561 1.021 2.378 2.378 0 0 0-.95 1.71 1.211 1.211 0 0 0 .513.95 3.261 3.261 0 0 0 1.956.418 9.185 9.185 0 0 0 2.85-.456q3.04-1.007 3.8-2.2a1.389 1.389 0 0 0 .3-.741 1.522 1.522 0 0 0-1.064-1.368 35.313 35.313 0 0 0-3.458-1.311 4.837 4.837 0 0 1-1.453-.751 1.383 1.383 0 0 1-.6-1.121 1.779 1.779 0 0 1 .712-1.292 5.423 5.423 0 0 1 1.72-1.016 10.763 10.763 0 0 1 3.674-.821q2.088 0 2.088 1.045Zm3.743 4.712q1.463-.133 1.777-.133t.313.095q0 .114-.446.237a18.9 18.9 0 0 1-2.176.314q-.1.171-.228.4a2.971 2.971 0 0 0-.3.551 11.694 11.694 0 0 0-1.14 2.755 4.1 4.1 0 0 0-.019.437.633.633 0 0 0 .152.437q.266.3.76.038a8.031 8.031 0 0 0 1.374-1.065 10.237 10.237 0 0 0 1.434-1.558.139.139 0 0 1 .19-.038q.285.133-.988 1.5a6.107 6.107 0 0 1-2.036 1.616 2.446 2.446 0 0 1-.8.171.977.977 0 0 1-1.007-.722 1.189 1.189 0 0 1-.038-.323 5.585 5.585 0 0 1 .608-2.014 6.112 6.112 0 0 1-.741.95q-.171.19-.266 0a.237.237 0 0 1-.019-.1.281.281 0 0 1 .076-.161q.931-1.159 1.463-1.957 0-.019.418-.8a1.981 1.981 0 0 1-.389.038.348.348 0 0 1-.295-.123.272.272 0 0 1-.019-.295q.133-.3 1.007-.342a.077.077 0 0 1 .076-.038l.95-1.767q.076-.152.171-.314t.142-.247l.1-.181a.735.735 0 0 1 .1-.133l.076-.076q.076-.114.447-.114a.551.551 0 0 1 .5.209.438.438 0 0 1 .057.256.783.783 0 0 1-.133.4.928.928 0 0 1-.285.313.548.548 0 0 0-.209.209l-.912 1.6Zm6.137 3.23a2.756 2.756 0 0 0 .342-1.083 1.689 1.689 0 0 0-.085-.6.312.312 0 0 1 .076-.371.462.462 0 0 1 .408-.114q.38.1.38.855a3.8 3.8 0 0 1-.893 2 .472.472 0 0 0 .532.513q.513 0 1.558-1.1.494-.57.618-.741t.219-.124q.1.048.1.086a2.917 2.917 0 0 1-.684.988q-1.083 1.33-1.919 1.33a.8.8 0 0 1-.779-.475q-.38.4-.741.741a2.5 2.5 0 0 1-1.653.627 1.422 1.422 0 0 1-.855-.247 1.523 1.523 0 0 1-.665-1.425 4.149 4.149 0 0 1 .76-2.28 5.51 5.51 0 0 1 1.026-1.2 2.757 2.757 0 0 1 1.767-.817 1.381 1.381 0 0 1 .4.057.723.723 0 0 1 .57.722q0 .437-.228.437-.1-.038-.095-.285 0-.342-.38-.342-.665 0-1.71 1.216a5.107 5.107 0 0 0-1.254 2.451 2.612 2.612 0 0 0-.038.465 1.32 1.32 0 0 0 .171.589.649.649 0 0 0 .636.333 1.731 1.731 0 0 0 1.017-.418 4.442 4.442 0 0 0 .988-1.064l-.057-.114a.542.542 0 0 1 .076-.494.341.341 0 0 1 .39-.116Zm6.194 2.565q-.969 0-.969-1.169a4.7 4.7 0 0 1 1.672-2.878 2.171 2.171 0 0 0 .19-.209l.133-.19q.266-.361.247-.456l-.057-.171q-.076-.228-.627-.333a5.018 5.018 0 0 0-.893-.1q-1.71 2.413-1.976 2.755t-.363.276a.16.16 0 0 1-.1-.133.461.461 0 0 1 .114-.228 15.55 15.55 0 0 0 1.767-2.679.579.579 0 0 1-.342-.162q-.114-.123-.019-.418a2.375 2.375 0 0 1 .579-.788 3.22 3.22 0 0 1 .846-.665q.361-.171.456-.209a.558.558 0 0 1 .209-.038q.228 0-.152.684l-.741 1.178q.855.057 1.463.057l.665-.019a1.007 1.007 0 0 1 .475.086q.152.086.076.295a3.553 3.553 0 0 1-.665.969 9.558 9.558 0 0 0-1.71 2.831 1.858 1.858 0 0 0-.133.627q0 .551.4.551a1.362 1.362 0 0 0 .5-.209 8.765 8.765 0 0 0 1.244-1 9.342 9.342 0 0 0 1.406-1.549.138.138 0 0 1 .181-.048q.1.048.1.1a.193.193 0 0 1-.038.1 7.4 7.4 0 0 1-1.026 1.311 9.322 9.322 0 0 1-1.444 1.292 2.365 2.365 0 0 1-1.47.539Zm8.816-6q1.026 0 1.026.988a1.217 1.217 0 0 1-.285.836 3.843 3.843 0 0 1-1.539 1.226 5.187 5.187 0 0 1-1.805.58q-.266.019-.285-.152-.019-.076.047-.095a.408.408 0 0 1 .1-.019 3.021 3.021 0 0 0 1.121-.418 6.131 6.131 0 0 0 1.862-1.406 1.13 1.13 0 0 0 .247-.656.273.273 0 0 0-.3-.313 1.617 1.617 0 0 0-.665.209 6.558 6.558 0 0 0-1.882 1.445 5.263 5.263 0 0 0-1.292 2.023 2 2 0 0 0-.1.6.817.817 0 0 0 .247.56.99.99 0 0 0 .76.266 3.522 3.522 0 0 0 1.311-.3 6.971 6.971 0 0 0 3.306-2.641q.114-.152.209-.057.076.038.076.095a.235.235 0 0 1-.057.133 6.784 6.784 0 0 1-1.444 1.691 5.14 5.14 0 0 1-3.287 1.444 2.144 2.144 0 0 1-1.919-.817 1.4 1.4 0 0 1-.209-.779 3.038 3.038 0 0 1 .247-1.083 5.965 5.965 0 0 1 2.033-2.223 4.759 4.759 0 0 1 2.475-1.141Z"/></svg>