<svg xmlns="http://www.w3.org/2000/svg" width="33.195" height="10.515"><path d="M12.69.42c0-.285-.135-.42-.4-.42a1.1 1.1 0 0 0-.57.18 13.763 13.763 0 0 0-2.025 2.19c-.47.575-1.04 1.275-1.685 2.1-.72.915-1.26 1.6-1.605 2.07A83.57 83.57 0 0 1 5.01 8.28c.315-1.335.615-2.67.915-4.005A34.621 34.621 0 0 0 6.66.6c0-.375-.165-.555-.51-.555-.315 0-.57.24-.765.7l-1.11 2.6A23.327 23.327 0 0 1 0 10.515l.765-.03c.63-.375 1.59-1.875 2.9-4.53A78.438 78.438 0 0 0 6.045.63c-.15.585-.255.975-.3 1.2l-1.2 5.61c0 .015-.105.435-.3 1.275a10.6 10.6 0 0 0-.255 1.14l-.03.075a.323.323 0 0 0 .345.315 3.387 3.387 0 0 0 .375-.435l2.355-3.18a128.46 128.46 0 0 1 5.04-6.06l-2.34 4.68a12.689 12.689 0 0 0-1.425 4.875c0 .12.075.18.24.18.255 0 .39-.075.42-.21a5.437 5.437 0 0 0 .06-.75 9.126 9.126 0 0 1 .39-1.6 21.417 21.417 0 0 1 1.035-2.66c.45-.945 1.125-2.25 2.01-3.915a1.626 1.626 0 0 0 .225-.75Zm4.56 7.68a.44.44 0 0 0-.06-.24 2.843 2.843 0 0 1-1.305.75l-.255-.09a5.08 5.08 0 0 0 .675-1.86 5.027 5.027 0 0 0-.03-.705.428.428 0 0 0-.48-.36 1.072 1.072 0 0 0-.975.765 3.2 3.2 0 0 0-.27 1.32 1.549 1.549 0 0 0 .3 1.035 2.31 2.31 0 0 1-.66.675 1.633 1.633 0 0 1-.855.36c-.495 0-.75-.4-.75-1.23a3.306 3.306 0 0 1 .645-1.9 3.507 3.507 0 0 1 1.89-1.275.262.262 0 0 0 .18-.27c0-.165-.09-.255-.27-.255a2.833 2.833 0 0 0-1.155.51 3.515 3.515 0 0 0-1.83 3.165c0 1.185.405 1.785 1.2 1.785A2.949 2.949 0 0 0 15.3 9.035a1.481 1.481 0 0 0 .45.09 1.771 1.771 0 0 0 .945-.285c.375-.215.555-.455.555-.74Zm-1.425-1.68a5.892 5.892 0 0 1-.585 1.845 1.039 1.039 0 0 1-.21-.645 2.5 2.5 0 0 1 .18-.87q.225-.585.54-.585c.045.015.075.105.075.255Zm8.07 1.725c0-.165-.03-.255-.075-.255l-.69.54a1.706 1.706 0 0 1-.8.315c-.4-.12-.4-.15-.51-.57a7.33 7.33 0 0 0 .98-2.83c0-.075-.045-.12-.135-.12-.57 0-1.05.915-1.425 2.73a2.6 2.6 0 0 1-.885 1.11 2.911 2.911 0 0 1-1.26.78.2.2 0 0 0-.15.045c-.285-.045-.42-.165-.42-.33a4.262 4.262 0 0 1 .39-1c.135-.3.285-.6.435-.9.585-1.32.93-2.13 1.05-2.43a1.406 1.406 0 0 0-.525-.06 10.767 10.767 0 0 0-.63 1.2 2.975 2.975 0 0 1-.765.93 9.8 9.8 0 0 0-.855.87.293.293 0 0 0-.06.21c0 .195.045.3.12.33.375-.375.645-.645.81-.84l.03.03c-.1.285-.225.555-.345.84a2.5 2.5 0 0 0-.195.885c0 .5.285.75.84.75a3.483 3.483 0 0 0 2.61-1.695.784.784 0 0 0 .8.615 2.032 2.032 0 0 0 1.035-.375q.625-.393.625-.775Zm4-.03c0-.135-.045-.195-.12-.195a6.836 6.836 0 0 0-.8.615 7.026 7.026 0 0 1-1.64 1.08l-.09-.09c.225-.54.39-.945.525-1.2.84-1.86 1.32-2.94 1.44-3.225h-.675c-.345.78-.54 1.215-.585 1.29a12.813 12.813 0 0 1-.855.96 6.955 6.955 0 0 0-.84.96c0 .15.015.24.06.27l.12.03c.405-.375.69-.645.87-.84l.03.03a7.428 7.428 0 0 0-.84 2.235c0 .165.1.24.33.24a3.183 3.183 0 0 0 1.515-.69 11.53 11.53 0 0 0 1.38-1.065.514.514 0 0 0 .18-.405Zm-.21-4.68c0-.315-.09-.48-.27-.48a.448.448 0 0 0-.42.255l-.15.51c.015.225.12.345.3.345q.545 0 .545-.63Zm5.5 4.74a.66.66 0 0 0-.03-.15l-.08-.08c-.705.585-1.2.99-1.485 1.185a3.262 3.262 0 0 1-1.695.705c-.72 0-1.08-.33-1.08-1 0-.105.015-.255.03-.48a5.121 5.121 0 0 0 2.475-.54 2.153 2.153 0 0 0 1.245-2.025c0-.5-.3-.75-.915-.75a3.376 3.376 0 0 0-2.22 1.155 3.16 3.16 0 0 0-1.185 2.175c0 1.335.375 2 1.11 2a3.577 3.577 0 0 0 1.44-.285 7.27 7.27 0 0 0 1.4-.825c.67-.47 1-.83 1-1.085Zm-1.21-2.205a1.652 1.652 0 0 1-.915 1.38 2.948 2.948 0 0 1-1.635.54c.015 0-.15-.015-.465-.06a3.141 3.141 0 0 1 1.025-1.485 2.466 2.466 0 0 1 1.53-.81c.315 0 .46.15.46.435Z" fill="#fff"/></svg>