<svg xmlns="http://www.w3.org/2000/svg" width="107.114" height="34.643"><path d="M30.625 3.724c0-1.911-1.127-2.891-3.43-2.891-2.744 0-6.615 2.744-11.613 8.281a73.027 73.027 0 0 0-9.114 12.152H3.236c-1.617.147-2.45.588-2.45 1.372a3.618 3.618 0 0 0 .1.588.792.792 0 0 0 .49.2c.539 0 1.715-.245 2.107-.245.441-.049 1.127-.049 2.009-.049A45.127 45.127 0 0 0 0 34.451a6.948 6.948 0 0 0 2.058-.151c.049-.049.882-1.715 2.5-5.1a54.123 54.123 0 0 1 3.234-6.076 20.893 20.893 0 0 1 6.174.882 9.658 9.658 0 0 1 5.194 3.185c1.127 1.519 1.715 2.695 1.715 3.479 0 .245-.147 1.47-.147 2.009 0 1.323.441 1.96 1.323 1.96.931 0 1.372-.392 1.372-1.176a45.527 45.527 0 0 1 2.3-13.524c.931-2.744 1.911-5.488 2.891-8.281 1.322-3.965 2.011-6.607 2.011-7.934Zm-2.352.2a30.164 30.164 0 0 1-1.617 6.272c-2.793 8.624-4.459 14.308-5.047 17.1a13.589 13.589 0 0 0-7.889-5.245c-2.156-.343-3.773-.588-4.9-.686.931-2.5 3.626-6.125 8.134-10.878q7.2-7.644 10.437-7.644c.588-.001.882.342.882 1.077Zm20.874 23.467c0-.539-.1-.833-.343-.833-2.156 2.058-3.773 3.087-4.9 3.087l-1.029-.294c2.5-3.283 3.724-6.468 3.724-9.457 0-1.715-.588-2.548-1.764-2.548-1.47 0-2.744 1.225-3.773 3.626a14.738 14.738 0 0 0-1.274 5.586c.049.1.1.588.245 1.421a5 5 0 0 0 .539 1.764 10.24 10.24 0 0 1-2.352 2.2 5.306 5.306 0 0 1-2.984 1.23c-.931 0-1.372-.539-1.372-1.666q0-1.837 2.058-7.056c1.225-3.185 2.205-5.488 2.842-6.909 1.225-2.548 2.4-5.1 3.577-7.644 2.2-4.851 3.283-7.84 3.283-8.967 0-.637-.2-.931-.637-.931-.784 0-1.421.686-1.96 2.058l-2.063 5.393c-.833 2.2-1.519 3.822-1.96 4.9a250.398 250.398 0 0 1-4.018 9.8 13.739 13.739 0 0 1-2.793 3.185c-1.323 1.222-1.957 2.349-1.957 3.378a.26.26 0 0 0 .294.294c.343 0 .833-.294 1.421-.931l1.222-1.326a14.02 14.02 0 0 0-1.274 5.05c0 1.911 1.127 2.842 3.337 2.842 1.666 0 3.871-1.274 6.615-3.773a2.363 2.363 0 0 0 1.47.539 7.409 7.409 0 0 0 3.675-1.127c1.416-.831 2.151-1.813 2.151-2.891Zm-4.214-7.2a11.526 11.526 0 0 1-.931 4.116 10.433 10.433 0 0 1-2.058 3.528 32.89 32.89 0 0 1-.2-1.421 16.332 16.332 0 0 1 .833-4.067c.637-2.107 1.323-3.185 1.96-3.185.249-.003.399.34.399 1.026Zm22.491 7.053a1.438 1.438 0 0 0-.2-.784c-2.009 1.617-3.43 2.45-4.263 2.45l-.825-.294c1.47-2.891 2.2-4.9 2.2-6.076a16.423 16.423 0 0 0-.1-2.3 1.4 1.4 0 0 0-1.568-1.176c-1.372 0-2.45.833-3.185 2.5a10.441 10.441 0 0 0-.882 4.312 5.061 5.061 0 0 0 .983 3.375 7.545 7.545 0 0 1-2.156 2.205 5.334 5.334 0 0 1-2.792 1.178c-1.617 0-2.45-1.323-2.45-4.018a10.8 10.8 0 0 1 2.107-6.223 11.458 11.458 0 0 1 6.174-4.165.857.857 0 0 0 .588-.882c0-.539-.294-.833-.882-.833a9.254 9.254 0 0 0-3.773 1.666 11.481 11.481 0 0 0-5.979 10.339c0 3.871 1.323 5.833 3.92 5.833 2.107 0 4.361-1.372 6.713-4.067a4.837 4.837 0 0 0 1.47.294 5.787 5.787 0 0 0 3.087-.931c1.225-.688 1.813-1.472 1.813-2.403Zm-4.655-5.488q0 1.617-1.911 6.027a3.4 3.4 0 0 1-.686-2.107 8.183 8.183 0 0 1 .588-2.842q.735-1.911 1.764-1.911c.147.049.245.343.245.833Zm28.273 5.39a1.552 1.552 0 0 0-.2-.784l-3.867 3.234a19.024 19.024 0 0 1-4.312 2.695 1.458 1.458 0 0 1-.343-.392 57.252 57.252 0 0 1 3.136-7.2 62.859 62.859 0 0 0 3.234-7.154c-.637-.049-1.127-.1-1.421-.1h-.245a15.925 15.925 0 0 0-2.107 2.352c-1.617 1.911-3.528 3.871-5.635 5.929-3.087 2.989-5.439 4.949-7.105 5.782a1.457 1.457 0 0 1-.392-.343 48.875 48.875 0 0 1 3.234-6.714 30.438 30.438 0 0 0 2.891-6.811 3.933 3.933 0 0 0-1.47-.2c-.245 0-.686.686-1.372 2.058l-1.323 2.695a21.527 21.527 0 0 1-2.891 3.038c-1.421 1.323-2.107 2.3-2.107 2.891 0 .539.147.784.49.784a4.667 4.667 0 0 0 1.519-1.417c.441-.539.833-1.078 1.225-1.617l.1.1c-2.011 4.457-3.045 7.005-3.045 7.691 0 .441.343.686 1.078.686 2.3 0 6.909-3.626 13.72-10.927l.1.1c-.833 1.617-1.617 3.283-2.4 4.949-1.176 2.4-1.764 4.018-1.764 4.8s.394 1.18 1.227 1.18c1.029 0 2.548-.637 4.655-1.911a36.472 36.472 0 0 0 4.312-3.089 2.875 2.875 0 0 0 1.078-2.305Zm16.072-23.52c0-.637-.2-.98-.539-.98-1.519 0-2.205 2.4-3.969 7.5l-.882 2.646h-3.969c-.539 0-.833.294-.931.931a.836.836 0 0 0 .931.735h3.136l-2.4 6.125a13.666 13.666 0 0 1-2.548 2.94l-3.039 3.035a2.313 2.313 0 0 0-.735 1.519 2.529 2.529 0 0 0 .1.539l.2.294c1.666-1.617 3.136-2.989 4.41-4.018a14.584 14.584 0 0 1-1.715 4.116 9.433 9.433 0 0 0-1.428 4.214c0 .735.736 1.129 2.206 1.129q1.25 0 4.851-2.352a20.42 20.42 0 0 0 4.459-3.479 2.463 2.463 0 0 0 .588-1.372c0-.441-.1-.686-.294-.686a31.623 31.623 0 0 0-3.479 2.646c-2.3 1.862-3.969 2.891-5.1 3.087-.441-.147-.686-.343-.686-.686 0-.441 1.029-3.185 3.136-8.232 1.813-4.312 3.038-7.252 3.773-8.82h2.646c.735 0 1.078-.392 1.078-1.127a.912.912 0 0 0-.2-.539h-2.842a10.534 10.534 0 0 1 1.617-4.606 10.585 10.585 0 0 0 1.625-4.559Z"/></svg>