<svg xmlns="http://www.w3.org/2000/svg" width="105.245" height="28.799"><path d="M7.6 11.098c0-.868-.527-1.3-1.55-1.3-1.457 0-2.852 1.023-4.185 3.038A9.428 9.428 0 0 0 0 17.918c0 1.395.527 2.077 1.55 2.077 1.085 0 2.077-.9 2.914-2.728l.062.062c-.093.62-.124.961-.124.961a2.743 2.743 0 0 0 .961 1.984 4.385 4.385 0 0 0 .992.31c.5-.031.744-.248.744-.62 0-.31-.217-.589-.682-.868a1.683 1.683 0 0 1-.682-1.581 6.736 6.736 0 0 1 .9-2.821 8.659 8.659 0 0 0 .9-2.139 1.118 1.118 0 0 0-.186-.62 3.076 3.076 0 0 0 .251-.837Zm-1.121 1.023a17.048 17.048 0 0 0-2.046 3.41q-1.4 2.7-2.511 2.7c-.279 0-.434-.279-.434-.837a7.087 7.087 0 0 1 1.333-3.568c.961-1.581 1.86-2.356 2.728-2.356a1.013 1.013 0 0 1 .93.651Zm13.268 1.859a.531.531 0 0 0-.341-.5 1 1 0 0 0-.527.434 15.4 15.4 0 0 1-4.123 4.588l-.062-.093q1.069-2.229 1.488-2.878l1.457-2.351a1.457 1.457 0 0 0-.279-.527 3.76 3.76 0 0 0 .4-1.643c0-1.023-.465-1.519-1.364-1.519q-2 0-4.371 3.069Q9.7 15.58 9.7 17.763c0 .775.465 1.581 1.24 1.581a3.573 3.573 0 0 0 2.635-1.7l.062.062a32.588 32.588 0 0 1-1.054 2.263 39.124 39.124 0 0 0-4.554 2.63c-1.7 1.333-2.573 2.759-2.573 4.34a1.715 1.715 0 0 0 1.674 1.86q2.79 0 6.51-8.277a14.882 14.882 0 0 0 5.549-5.27 3 3 0 0 0 .558-1.272Zm-3.5-2.356a2.36 2.36 0 0 1-.713 1.55l-1.181 1.306a1.932 1.932 0 0 0 .279.372c-.9 1.767-1.86 2.79-2.945 3.038a.563.563 0 0 1-.434-.62c0-.837.589-2.046 1.736-3.627q1.767-2.418 2.883-2.418c.248-.003.372.121.372.4Zm-4.591 10.107c-1.056 1.891-1.643 2.949-1.798 3.162C8.835 26.474 8 27.249 7.347 27.249c-.279 0-.4-.217-.4-.62 0-.806.589-1.767 1.8-2.914a8.821 8.821 0 0 1 2.909-1.984ZM31 13.051a.782.782 0 0 0-.124-.279l-.276-.124c-1.209.589-2.108 1.023-2.7 1.333q-.465-.186-.465-.372c0-.279.341-.744 1.054-1.364s1.085-1.023 1.085-1.24c0-.527-.186-.775-.558-.775l-.775.341a18.133 18.133 0 0 0-2.449 1.891c-.248.217-.992.961-2.2 2.17a7.339 7.339 0 0 1 1.177-1.952 4.244 4.244 0 0 0 .9-1.581q0-.465-.651-.465l-.837.465c-.527.279-1.4 1.674-2.542 4.154-1.148 2.448-1.739 4.027-1.739 4.711 0 .341.217.527.62.62a1.478 1.478 0 0 0 .651-.372c.527-.93.93-1.643 1.147-2.139a19.031 19.031 0 0 1 3.813-4.526l.062.062a1.485 1.485 0 0 0-.372 1.023c0 .589.4.868 1.24.868a5.282 5.282 0 0 0 2.356-.806C30.473 14.105 31 13.58 31 13.051Zm6.324-1.984c0-.372-.186-.558-.589-.558-.527 0-1.519 1.333-2.914 3.968q-2.046 3.86-2.046 4.929a.9.9 0 0 0 .682.992l.372-.155c.155-.062.341-.434.589-1.116l.434-1.333a24.8 24.8 0 0 1 3.038-5.921 2.253 2.253 0 0 0 .434-.806Zm3.007-5.673c0-.093-.031-.248-.062-.465a.654.654 0 0 0-.589-.217 1.571 1.571 0 0 0-1.3.775 2.906 2.906 0 0 0-.62 1.457c.155.434.4.651.682.651a1.646 1.646 0 0 0 1.271-.744 2.453 2.453 0 0 0 .618-1.457ZM45.818 15.5a.636.636 0 0 0-.341-.651q-.325 0-.837.651a9.3 9.3 0 0 1-4.154 3.255 1.033 1.033 0 0 1-.992-1.175 7.55 7.55 0 0 1 1.581-3.5c1.054-1.587 1.925-2.393 2.573-2.393.248.031.279.124.279.341a2.06 2.06 0 0 1-.465 1.085l-.775.992c0 .279.155.465.5.558.527 0 .992-.4 1.457-1.209a3.989 3.989 0 0 0 .589-1.922c0-.9-.4-1.364-1.24-1.364a4.505 4.505 0 0 0-2.763 1.519 12.167 12.167 0 0 0-2.263 2.945 7.751 7.751 0 0 0-1.023 3.534 2.263 2.263 0 0 0 2.418 2.077 4.362 4.362 0 0 0 3.069-1.488 29.58 29.58 0 0 0 2.2-2.79.745.745 0 0 0 .187-.465Zm9.765-3.32c0-.279-.31-.713-.589-.713-.589 0-1.116.589-1.519 1.767a13.85 13.85 0 0 1-1.984 3.689c-.62.837-1.147 1.3-1.55 1.364a.619.619 0 0 1-.4-.527 9.743 9.743 0 0 1 2.449-4.836c.589-.651.9-1.085.9-1.3a.789.789 0 0 0-.062-.217.708.708 0 0 0-.589-.31c-.775 0-1.736.992-2.821 3.007a8.753 8.753 0 0 0-1.3 4 2.379 2.379 0 0 0 .31 1.24 1.216 1.216 0 0 0 1.054.651c.775 0 1.8-.837 3.007-2.542a5.718 5.718 0 0 0 .5 2.046 1.739 1.739 0 0 0 1.664 1.023c.589 0 .868-.248.868-.744q0-.232-.837-.93a2.28 2.28 0 0 1-.837-1.829 5.355 5.355 0 0 1 .868-2.539 5.193 5.193 0 0 0 .868-2.3ZM70.711 1.33A1.23 1.23 0 0 0 69.6 0c-1.147 0-2.7 1.488-4.712 4.433a51.157 51.157 0 0 0-3.627 6.231 28.673 28.673 0 0 0-2.635 6.541l-.248 1.3c.186.93.589 1.395 1.24 1.395a3.776 3.776 0 0 0 2.573-1.581 12.713 12.713 0 0 0 1.736-2.666 1.177 1.177 0 0 0 .186-.558.693.693 0 0 0-.093-.31l-.279-.155c-.279 0-.713.5-1.3 1.519a3.778 3.778 0 0 1-2.077 1.891c-.279-.093-.434-.248-.434-.4a6.424 6.424 0 0 1 .5-1.643 10.114 10.114 0 0 1 .744-1.643 112.124 112.124 0 0 1 2.976-2.852 47.185 47.185 0 0 0 4-4.774c1.693-2.388 2.561-4.186 2.561-5.395Zm-1.674.868c0 1.085-.93 2.821-2.79 5.27A26.343 26.343 0 0 1 62 12.121c1.364-2.759 2.325-4.619 2.914-5.58 1.488-2.6 2.728-4.185 3.751-4.712a.329.329 0 0 1 .372.372ZM76.6 7.967c0-.4-.279-.589-.868-.589a8.873 8.873 0 0 0-2.48.527c.341-.465.713-.9 1.054-1.333a2.957 2.957 0 0 0 .62-1.519.566.566 0 0 0-.62-.651c-.5 0-1.581 1.426-3.286 4.278l-1.829.4c-.589.124-.9.341-.9.651 0 .279.217.527.62.713l.279.062.713-.124c-1.767 3.5-2.666 5.983-2.666 7.44a2.356 2.356 0 0 0 .463 1.398 1.509 1.509 0 0 0 1.24.744c.9 0 1.891-.62 2.976-1.891a8.386 8.386 0 0 0 1.86-3.1c.062-.186-.093-.341-.5-.5l-.279.062-1.511 2.267a3.061 3.061 0 0 1-2.046 1.55 1.012 1.012 0 0 1-.589-.961 14.634 14.634 0 0 1 1.271-3.937 30.133 30.133 0 0 1 1.891-3.72q1.349-.419 2.7-.744l1.178-.186a.876.876 0 0 0 .709-.837Zm6.418 4.213c0-.279-.31-.713-.589-.713-.589 0-1.116.589-1.519 1.767a13.849 13.849 0 0 1-1.984 3.689c-.62.837-1.147 1.3-1.55 1.364a.619.619 0 0 1-.4-.527 9.743 9.743 0 0 1 2.449-4.836c.589-.651.9-1.085.9-1.3a.788.788 0 0 0-.062-.217.708.708 0 0 0-.589-.31c-.775 0-1.736.992-2.821 3.007a8.753 8.753 0 0 0-1.3 4 2.379 2.379 0 0 0 .31 1.24 1.216 1.216 0 0 0 1.054.651c.775 0 1.8-.837 3.007-2.542a5.718 5.718 0 0 0 .5 2.046 1.739 1.739 0 0 0 1.664 1.023c.589 0 .868-.248.868-.744q0-.232-.837-.93a2.28 2.28 0 0 1-.837-1.829 5.355 5.355 0 0 1 .868-2.539 5.193 5.193 0 0 0 .868-2.3Zm12.4.868a.783.783 0 0 0-.124-.279l-.279-.124c-1.209.589-2.108 1.023-2.7 1.333q-.465-.186-.465-.372c0-.279.341-.744 1.054-1.364s1.085-1.023 1.085-1.24c0-.527-.186-.775-.558-.775l-.775.341a18.133 18.133 0 0 0-2.446 1.894c-.248.217-.992.961-2.2 2.17a7.339 7.339 0 0 1 1.177-1.952 4.244 4.244 0 0 0 .9-1.581q0-.465-.651-.465l-.837.465c-.527.279-1.4 1.674-2.542 4.154-1.148 2.448-1.737 4.027-1.737 4.711 0 .341.217.527.62.62a1.478 1.478 0 0 0 .651-.372c.527-.93.93-1.643 1.147-2.139a19.031 19.031 0 0 1 3.813-4.526l.062.062a1.485 1.485 0 0 0-.372 1.023c0 .589.4.868 1.24.868a5.282 5.282 0 0 0 2.356-.806c1.054-.589 1.581-1.114 1.581-1.643Zm9.827 2.294c0-.372-.124-.558-.4-.558a21.969 21.969 0 0 0-1.984 1.8q-1.909 1.768-3.161 1.768a1.306 1.306 0 0 1-1.457-1.488 8.332 8.332 0 0 0 3.472-2.046 4.874 4.874 0 0 0 1.891-3.41.977.977 0 0 0-1.085-1.116c-.9 0-2.108.744-3.6 2.2a8.257 8.257 0 0 0-1.612 2.356 6.388 6.388 0 0 0-.682 2.666 2.078 2.078 0 0 0 2.294 2.387 4.32 4.32 0 0 0 2.232-.682 17.165 17.165 0 0 0 2.387-1.767c1.147-.96 1.705-1.672 1.705-2.107Zm-3.069-2.976c0 .527-.775 1.395-2.325 2.666a3.507 3.507 0 0 1-1.271.558 7.014 7.014 0 0 1 1.364-2.26c.775-.961 1.426-1.457 1.922-1.457.217 0 .31.155.31.496Z" fill="#fff"/></svg>