<svg xmlns="http://www.w3.org/2000/svg" width="197.812" height="74.592"><path d="M25.402 3.296a3.029 3.029 0 0 0-3.264-3.3c-1.938 0-3.978 1.36-6.154 4.08a49.436 49.436 0 0 0-4.284 6.63 18.44 18.44 0 0 0 .952-5.236 5.9 5.9 0 0 0-1.19-3.774A4.316 4.316 0 0 0 7.892.132a7 7 0 0 0-5.784 3.164A10.774 10.774 0 0 0 .002 9.724c0 2.686.918 4.012 2.72 4.012a2.122 2.122 0 0 0 1.258-.374 8.632 8.632 0 0 1-.646-3.3 9.021 9.021 0 0 1 .952-4.012c.782-1.564 1.768-2.346 2.992-2.346 1.292 0 1.938.748 1.938 2.278 0 3.026-1.36 7.718-4.114 14.076a37.761 37.761 0 0 0-1.94 4.898c0 .544.51.816 1.564.816a4.7 4.7 0 0 0 1.836-.306c.408-.17.578-.748.714-1.19.986-2.55 1.938-4.828 2.89-6.834a67.9 67.9 0 0 1 4.59-7.82c2.618-3.944 4.522-5.916 5.644-5.916.51 0 .782.306.782.952a9.15 9.15 0 0 1-.51 2.686l-.918 2.584-1.972 5.576a22.2 22.2 0 0 0-1.462 5.746c0 2.856 1.9 4.284 5.678 4.284h.578l.646-2.21c-1.9 0-2.856-.68-2.856-2.074a25.351 25.351 0 0 1 1.292-4.828l2.176-6.494a28.24 28.24 0 0 0 1.568-6.632ZM40.294 14.21c0-2.21-.748-3.332-2.244-3.332a2.4 2.4 0 0 0-2.278 2.652 1.71 1.71 0 0 0 1.63 1.872 9.346 9.346 0 0 1-.408 2.856 10.74 10.74 0 0 1-1.632 3.162 3.789 3.789 0 0 1-2.822 1.8c-.986 0-1.5-.646-1.5-1.9 0-3.128 1.53-6.324 4.624-9.554.51-.544.782-.918.782-1.156 0-.374-.238-.578-.748-.578-2.108 0-4.046 1.122-5.814 3.332a10.482 10.482 0 0 0-2.516 6.426 7.377 7.377 0 0 0 .444 2.786 5.174 5.174 0 0 1-1.36.544l-1.5.2-.646 2.21a11.536 11.536 0 0 0 4.696-1.152 4.66 4.66 0 0 0 3.434 1.224c2.278 0 4.216-1.36 5.814-4.114a14.477 14.477 0 0 0 2.04-7.276Zm21.008-3.432q0-.918-1.938-.918a2.692 2.692 0 0 0-1.564.306 2.524 2.524 0 0 0-.612 1.394 4.564 4.564 0 0 0-3.366-1.364 7.55 7.55 0 0 0-4.012 1.19 12.485 12.485 0 0 0-3.908 4.152 10.04 10.04 0 0 0-1.87 5.372 8.044 8.044 0 0 0 .136 1.666 5.174 5.174 0 0 1-1.36.544l-1.5.2-.646 2.21a9.391 9.391 0 0 0 4.25-.952 3.2 3.2 0 0 0 2.654 1.024c2.55 0 4.9-2.006 7.038-5.984a175.388 175.388 0 0 1-2.992 7.178q-4.386 2.193-4.386 4.9c0 1.326.714 2.006 2.142 2.006 1.326 0 2.618-.986 3.842-2.924a36.8 36.8 0 0 0 2.21-4.666 34.572 34.572 0 0 1 3.5-.578l.612-2.21a29.389 29.389 0 0 0-3.33.442l4.726-11.56a4.413 4.413 0 0 0 .374-1.428Zm-5.032 2.686a34.776 34.776 0 0 1-2.924 5.542c-1.666 2.55-3.128 3.808-4.454 3.808-.748 0-1.122-.51-1.122-1.564a9.336 9.336 0 0 1 2.244-5.338c1.564-2.074 3.06-3.128 4.522-3.128a4.627 4.627 0 0 1 1.734.68Zm24.82-2.414c0-.442-.374-.816-1.088-1.054a5.346 5.346 0 0 0-1.666-.272.98.98 0 0 0-.918.612l-.34 1.156a4.637 4.637 0 0 0-3.23-1.292c-2.38 0-4.624 1.224-6.766 3.672a10.783 10.783 0 0 0-3.06 7.038 8.044 8.044 0 0 0 .136 1.666 5.174 5.174 0 0 1-1.36.544l-1.5.2-.646 2.21a9.391 9.391 0 0 0 4.25-.948 3.2 3.2 0 0 0 2.656 1.02c2.55 0 4.9-2.006 7.038-5.984a16.008 16.008 0 0 0-.816 3.536 2.032 2.032 0 0 0 1.632 2.074 10.561 10.561 0 0 0 2.958.306h.306l.612-2.21c-1.5 0-2.244-.408-2.244-1.258 0-1.36.68-3.536 2.006-6.528q2.04-4.542 2.04-4.488Zm-4.828 2.414a34.776 34.776 0 0 1-2.924 5.542c-1.666 2.55-3.128 3.808-4.454 3.808-.748 0-1.122-.51-1.122-1.564a9.336 9.336 0 0 1 2.24-5.338c1.564-2.074 3.06-3.128 4.522-3.128a4.627 4.627 0 0 1 1.738.68Zm30.872-1.156c0-1.462-.816-2.176-2.482-2.176-1.428 0-2.992 1.02-4.692 3.026a52.918 52.918 0 0 0-3.434 4.9c1.428-3.094 2.142-5.066 2.142-5.882a1.838 1.838 0 0 0-2.108-2.04c-2.074 0-4.76 2.686-7.99 8.058q.153-.51 1.53-4.182c.85-2.21 1.258-3.4 1.258-3.5 0-.442-.816-.68-2.414-.68-.816 0-1.53 1.156-2.142 3.5-.986 3.774-1.6 5.95-1.836 6.494-.986 2.346-2.346 3.5-4.012 3.5l-.612 2.208a5.059 5.059 0 0 0 3.774-1.6 11.676 11.676 0 0 0-.34 1.122c-.1.374.306.544 1.156.544 1.19 0 1.87-.17 2.006-.476 1.394-3.264 2.72-6.562 4.9-9.282q1.985-2.446 2.75-2.446c.408 0 .612.2.612.646 0 .85-1.054 3.774-3.128 8.7a10.471 10.471 0 0 0-.748 2.044c0 .442.714.68 2.142.68.85 0 1.462-.51 1.9-1.53l.922-2.14a28.186 28.186 0 0 1 3.672-5.918c1.292-1.666 2.176-2.482 2.652-2.482.34.1.476.272.408.544a25.289 25.289 0 0 1-.952 2.956l-1.156 2.79a8.509 8.509 0 0 0-.748 2.89 2.506 2.506 0 0 0 1.87 2.55 10.93 10.93 0 0 0 3.434.408h.2l.612-2.21c-1.5 0-2.244-.374-2.244-1.156a19.557 19.557 0 0 1 1.534-5.032 19.986 19.986 0 0 0 1.564-4.828Zm13.7-10.03a1.989 1.989 0 0 0-1.972-2.04 2.763 2.763 0 0 0-2.55 2.89 1.724 1.724 0 0 0 1.94 1.968 2.623 2.623 0 0 0 2.584-2.818Zm-2.176 8.534c0-.51-.442-.748-1.292-.748a2.907 2.907 0 0 0-2.684 1.292 14.169 14.169 0 0 0-.918 3.06c-1.394 5.95-3.3 8.908-5.78 8.908l-.612 2.21a5.685 5.685 0 0 0 4.522-2.312c.272 1.53 1.734 2.312 4.352 2.312h.578l.578-2.21c-1.53 0-2.278-.442-2.278-1.292 0-.68.986-3.808 2.958-9.35a12.71 12.71 0 0 0 .578-1.87Zm18.6-6.392c0-2.822-1.122-4.25-3.4-4.25-2.414 0-4.624 2.21-6.7 6.664a70.5 70.5 0 0 0-3.4 9.69 27.65 27.65 0 0 1-1.5 4.182c-.884 1.734-1.938 2.618-3.162 2.618l-.606 2.21a6.7 6.7 0 0 0 3.128-1.054 19.882 19.882 0 0 0-1.054 5.372c0 2.482 1.054 3.706 3.162 3.706a5.313 5.313 0 0 0 4.59-2.754 11.554 11.554 0 0 0 1.734-5.408 12.7 12.7 0 0 0 1.836.17h.408a1.951 1.951 0 0 1 .408-.032l.612-2.21c-.306.034-.578.068-.782.068a16.116 16.116 0 0 1-2.55-.2 4.177 4.177 0 0 0-2.38-3.166 29.09 29.09 0 0 0 6.46-6.9c2.14-3.13 3.196-6.02 3.196-8.706Zm-2.788-.374a8.618 8.618 0 0 1-.578 2.35 31.007 31.007 0 0 1-7.378 12.07c3.162-10.37 5.474-15.538 7-15.538.65-.004.956.368.956 1.118Zm-7 20.434c-.714 4.08-1.632 6.12-2.822 6.12-.578 0-.85-.408-.85-1.224a17.539 17.539 0 0 1 .71-3.98c.306-1.19.646-2.38.986-3.57a3.186 3.186 0 0 0 1.972 2.654Zm27.37-13.43c0-.442-.374-.816-1.088-1.054a5.346 5.346 0 0 0-1.666-.272.98.98 0 0 0-.918.612l-.34 1.156a4.637 4.637 0 0 0-3.23-1.292c-2.38 0-4.624 1.224-6.766 3.672a10.783 10.783 0 0 0-3.06 7.038 8.044 8.044 0 0 0 .13 1.666 5.174 5.174 0 0 1-1.36.544l-1.5.2-.64 2.214a9.391 9.391 0 0 0 4.25-.952 3.2 3.2 0 0 0 2.65 1.02c2.55 0 4.9-2.006 7.038-5.984a16.009 16.009 0 0 0-.816 3.536 2.032 2.032 0 0 0 1.634 2.074 10.561 10.561 0 0 0 2.958.306h.306l.612-2.21c-1.5 0-2.244-.408-2.244-1.258 0-1.36.68-3.536 2.006-6.528q2.04-4.542 2.04-4.488Zm-4.828 2.414a34.776 34.776 0 0 1-2.928 5.542c-1.666 2.55-3.128 3.808-4.454 3.808-.748 0-1.122-.51-1.122-1.564a9.336 9.336 0 0 1 2.244-5.338c1.564-2.074 3.06-3.128 4.522-3.128a4.627 4.627 0 0 1 1.734.68Zm19.92 9.86c-1.836 0-2.754-.408-2.754-1.19a11.232 11.232 0 0 1 1.292-3.638 11.114 11.114 0 0 0 1.292-3.842c0-.68-.612-1.462-1.87-2.312-.272-.17-1.156-.68-2.652-1.5a3.721 3.721 0 0 0 .374-1.394c0-1.19-.646-1.8-1.938-1.8a2.46 2.46 0 0 0-2.244 2.72 2.863 2.863 0 0 0 .748 1.87 61.408 61.408 0 0 1-2.72 6.46c-1.53 2.822-3.128 4.352-4.794 4.624l-.612 2.212c2.414 0 4.59-1.462 6.494-4.42a35.492 35.492 0 0 0 3.4-7.582c1.224.714 1.836 1.292 1.836 1.7a12.426 12.426 0 0 1-1.224 3.434 11.653 11.653 0 0 0-1.19 3.978c0 1.938 1.8 2.89 5.44 2.89h.476Zm27.88-11.016c0-1.462-.816-2.176-2.482-2.176-1.428 0-2.992 1.02-4.692 3.026a52.919 52.919 0 0 0-3.434 4.9c1.428-3.094 2.142-5.066 2.142-5.882a1.838 1.838 0 0 0-2.108-2.04c-2.074 0-4.76 2.686-7.99 8.058q.153-.51 1.53-4.182c.85-2.21 1.258-3.4 1.258-3.5 0-.442-.816-.68-2.414-.68-.816 0-1.53 1.156-2.142 3.5-.986 3.774-1.6 5.95-1.836 6.494-.986 2.346-2.346 3.5-4.012 3.5l-.612 2.208a5.059 5.059 0 0 0 3.774-1.6 11.676 11.676 0 0 0-.34 1.122c-.1.374.306.544 1.156.544 1.19 0 1.87-.17 2.006-.476 1.394-3.264 2.72-6.562 4.9-9.282q1.986-2.446 2.75-2.446c.408 0 .612.2.612.646 0 .85-1.054 3.774-3.128 8.7a10.471 10.471 0 0 0-.748 2.044c0 .442.714.68 2.142.68.85 0 1.462-.51 1.9-1.53l.922-2.14a28.186 28.186 0 0 1 3.672-5.916c1.292-1.666 2.176-2.482 2.652-2.482.34.1.476.272.408.544a25.289 25.289 0 0 1-.952 2.954l-1.156 2.79a8.509 8.509 0 0 0-.748 2.89 2.506 2.506 0 0 0 1.87 2.55 10.93 10.93 0 0 0 3.434.408h.2l.612-2.21c-1.5 0-2.244-.374-2.244-1.156a19.557 19.557 0 0 1 1.53-5.032 19.986 19.986 0 0 0 1.568-4.828ZM30.94 42.156c0-.782-.952-1.19-2.856-1.19-.646 0-1.122.51-1.394 1.5a48.406 48.406 0 0 1-3.5 8.976 44.07 44.07 0 0 1-5.134 8.092c-1.87 2.278-3.3 3.434-4.318 3.434a.621.621 0 0 1-.714-.68 6.336 6.336 0 0 1 .442-1.768l3.366-9.724a16.229 16.229 0 0 0 1.086-4.8c0-3.026-2.142-4.862-5.236-4.862a8.654 8.654 0 0 0-6.358 2.652 8.654 8.654 0 0 0-2.652 6.36 4.507 4.507 0 0 0 .612 2.448 2.258 2.258 0 0 0 2.074 1.224c.986 0 1.462-.272 1.462-.816a2.58 2.58 0 0 1-.782-2.21 7.745 7.745 0 0 1 1.224-4.148 4.041 4.041 0 0 1 3.434-2.21q2.142 0 2.142 1.938c0 .85-.714 3.264-2.108 7.174a464.94 464.94 0 0 0-2.312 6.256 18.422 18.422 0 0 0-1.088 3.876 2.814 2.814 0 0 0 3.094 2.924 8.741 8.741 0 0 0 6.12-2.788c1.938-1.87 4.25-5.338 6.97-10.472-1.666 4.93-2.516 8.058-2.516 9.316a3.31 3.31 0 0 0 2.21 3.3 12.576 12.576 0 0 0 4.284.578l.612-2.21c-2.006 0-2.992-.544-2.992-1.632a38.092 38.092 0 0 1 1.224-6.29c1.8-7.344 3.026-12.1 3.434-13.328a3.8 3.8 0 0 0 .17-.92ZM49.062 55.28c0-2.448-1.428-4.25-3.842-4.25a5.574 5.574 0 0 0-4.118 2.278 25.087 25.087 0 0 0-2.72 4.114l1.428-4.488a28.471 28.471 0 0 0 1.054-3.672q0-.714-1.428-.714c-1.19 0-2.108.952-2.72 2.89-.068.17-.374 1.564-.884 4.182l-.1.374c-.816 2.788-1.326 4.454-1.564 5-.952 2.21-2.074 3.332-3.366 3.332l-.612 2.21a4.316 4.316 0 0 0 2.72-.816c-.476 1.462-.952 2.924-1.462 4.386a23.407 23.407 0 0 0-1.088 3.944c0 .374.306.544.952.544 2.04 0 2.618-.272 2.89-1.462a61.556 61.556 0 0 1 2.074-7.616 5.708 5.708 0 0 0 2.654.78 8.2 8.2 0 0 0 3.5-.884 8.748 8.748 0 0 0 4.522 1.122h.408l.646-2.21a14.235 14.235 0 0 1-3.6-.578c3.096-2.686 4.656-5.508 4.656-8.466Zm-3.536.952c0 2.278-1.156 4.488-3.5 6.63a5.842 5.842 0 0 0-2.346-.51 6.423 6.423 0 0 0-2.448.612 34.056 34.056 0 0 1 2.584-5.338c1.462-2.414 2.856-3.6 4.114-3.6 1.052-.004 1.596.744 1.596 2.206Zm22.576-2.924c0-1.394-.714-2.074-2.142-2.074-2.584 0-5.474 2.652-8.67 7.922l5.236-13.46a17.836 17.836 0 0 0 1.02-2.958c0-.51-.748-.748-2.21-.748-1.02 0-1.836.782-2.448 2.312l-.986 3.434-3.366 10.608a14.225 14.225 0 0 1-2.142 4.552.972.972 0 0 0-.578-.17c-.646 0-1.326.544-2.108 1.6l-.646 2.21a5.244 5.244 0 0 0 3.808-1.6 3.1 3.1 0 0 0-.374 1.088c0 .374.374.578 1.156.578a2.623 2.623 0 0 0 2.652-1.87 28.059 28.059 0 0 1 4.114-7.65c1.326-1.6 2.312-2.414 2.958-2.414a.472.472 0 0 1 .544.544 24.859 24.859 0 0 1-1.428 3.672 14.757 14.757 0 0 0-1.39 4.658c0 2.006 1.7 2.992 5.1 2.992h.374l.612-2.21c-1.462 0-2.21-.374-2.21-1.156a17.807 17.807 0 0 1 1.564-4.93 18.154 18.154 0 0 0 1.56-4.93Zm13.634-10.03a1.989 1.989 0 0 0-1.972-2.04 2.763 2.763 0 0 0-2.55 2.89 1.724 1.724 0 0 0 1.938 1.968 2.623 2.623 0 0 0 2.584-2.818Zm-2.176 8.534c0-.51-.442-.748-1.292-.748a2.907 2.907 0 0 0-2.686 1.292 14.169 14.169 0 0 0-.918 3.06c-1.394 5.95-3.3 8.908-5.78 8.908l-.612 2.21a5.685 5.685 0 0 0 4.522-2.312c.272 1.53 1.734 2.312 4.352 2.312h.578l.578-2.21c-1.53 0-2.278-.442-2.278-1.292 0-.68.986-3.808 2.958-9.35a12.71 12.71 0 0 0 .578-1.87Zm14.042-8.194c0-1.258-.612-2.346-1.836-2.346a2.742 2.742 0 0 0-2.142 1.224c-1.088 1.428-2.278 4.624-3.536 9.554a92.475 92.475 0 0 0-2.142 10.2c-1.462 1.394-2.788 2.074-3.944 2.074l-.612 2.21a7.106 7.106 0 0 0 4.76-2.142c.476 1.428 1.836 2.142 4.114 2.142h.374l.612-2.21c-1.258 0-1.87-.544-1.87-1.666 0-2.006.918-5.95 2.72-11.866a22.818 22.818 0 0 0 2.278-3.4 8.561 8.561 0 0 0 1.224-3.774Zm10.914 0c0-1.258-.612-2.346-1.836-2.346a2.742 2.742 0 0 0-2.142 1.224c-1.088 1.428-2.278 4.624-3.536 9.554a92.475 92.475 0 0 0-2.142 10.2c-1.458 1.394-2.788 2.074-3.944 2.074l-.612 2.21a7.106 7.106 0 0 0 4.76-2.138c.476 1.428 1.836 2.142 4.114 2.142h.374l.612-2.21c-1.258 0-1.87-.544-1.87-1.666 0-2.006.918-5.95 2.72-11.866a22.818 22.818 0 0 0 2.278-3.4 8.561 8.561 0 0 0 1.224-3.778Zm31.686 1.394a3.371 3.371 0 0 0-2.074-3.128 8.494 8.494 0 0 0-3.91-.884 10.377 10.377 0 0 0-6.46 2.006 6.979 6.979 0 0 0-2.924 5.882 5.807 5.807 0 0 0 2.244 4.624l4.114 2.72a4.433 4.433 0 0 1 2.244 3.6 6.623 6.623 0 0 1-1.19 3.434l-5.236-1.5a23.665 23.665 0 0 0-5.372-.952c-2.822 0-4.25 1.19-4.25 3.536a4.4 4.4 0 0 0 2.856 4.148 12 12 0 0 0 5.3 1.054 10.858 10.858 0 0 0 8.432-3.536 19.569 19.569 0 0 0 3.094.51l.646-2.21a9.981 9.981 0 0 1-2.142-.408 7.486 7.486 0 0 0 1.536-4.612 6.707 6.707 0 0 0-2.244-5.1l-4.216-2.86q-2.248-1.479-2.248-3.264a3.576 3.576 0 0 1 1.734-3.2 6.451 6.451 0 0 1 3.638-.986c2.652 0 4.08 1.054 4.25 3.162 1.466.004 2.178-.676 2.178-2.036Zm-9.552 20.366a8.221 8.221 0 0 1-5.1 1.6 10.673 10.673 0 0 1-3.2-.476c-1.36-.476-2.04-1.19-2.04-2.108 0-.714.476-1.054 1.394-1.054 1.16-.002 4.152.678 8.946 2.038Zm22.236-12.546q0-.408-.612-.408h-2.72l1.87-5.474a17.151 17.151 0 0 0 .646-2.04q0-1.02-2.244-1.02a1.791 1.791 0 0 0-1.666 1.156l-.646 2.108-1.564 5.27a5.289 5.289 0 0 1-.68-.034h-.578c-.918 0-1.258.272-1.53 1.632l.136.34a14.851 14.851 0 0 0 2.04.068l-1.36 4.828a11.465 11.465 0 0 1-1.462 3.438 3.64 3.64 0 0 1-3.128 1.632l-.612 2.21a7.562 7.562 0 0 0 4.826-2.01c.918 1.326 2.822 2.006 5.712 2.006h.374l.646-2.21c-2.312 0-3.468-.68-3.468-2.074a18.045 18.045 0 0 1 .884-4.012l1.224-3.808h2.348c.714 0 1.156-.2 1.258-.578q.306-.969.306-1.02Zm14.484 2.38c0-2.21-.748-3.332-2.244-3.332a2.4 2.4 0 0 0-2.278 2.652 1.71 1.71 0 0 0 1.632 1.87 9.346 9.346 0 0 1-.408 2.856 10.74 10.74 0 0 1-1.632 3.162 3.789 3.789 0 0 1-2.822 1.8c-.986 0-1.5-.646-1.5-1.9 0-3.128 1.53-6.324 4.624-9.554.51-.544.782-.918.782-1.156 0-.374-.238-.578-.748-.578-2.108 0-4.046 1.122-5.814 3.332a10.482 10.482 0 0 0-2.516 6.426 7.377 7.377 0 0 0 .442 2.788 5.174 5.174 0 0 1-1.36.544l-1.5.2-.646 2.21a11.536 11.536 0 0 0 4.692-1.156 4.66 4.66 0 0 0 3.434 1.224c2.278 0 4.216-1.36 5.814-4.114a14.477 14.477 0 0 0 2.048-7.274Zm16.218 9.112c-1.836 0-2.754-.408-2.754-1.19a11.232 11.232 0 0 1 1.292-3.638 11.114 11.114 0 0 0 1.292-3.842c0-.68-.612-1.462-1.87-2.312-.272-.17-1.156-.68-2.652-1.5a3.721 3.721 0 0 0 .374-1.394c0-1.19-.646-1.8-1.938-1.8a2.46 2.46 0 0 0-2.244 2.72 2.863 2.863 0 0 0 .748 1.87 61.407 61.407 0 0 1-2.72 6.46c-1.53 2.822-3.128 4.352-4.794 4.624l-.612 2.21c2.414 0 4.59-1.462 6.494-4.42a35.493 35.493 0 0 0 3.4-7.582c1.224.714 1.836 1.292 1.836 1.7a12.427 12.427 0 0 1-1.224 3.434 11.653 11.653 0 0 0-1.19 3.978c0 1.938 1.8 2.89 5.44 2.89h.476Zm15.436-9.486a3.474 3.474 0 0 0-3.638-3.808 6.828 6.828 0 0 0-5.3 2.516 8.166 8.166 0 0 0-2.074 5.576 7.04 7.04 0 0 0 1.19 4.284 11.193 11.193 0 0 1-3.876.918l-.646 2.21a15.022 15.022 0 0 0 6.29-1.632 8.294 8.294 0 0 0 5.542 1.632h.442l.612-2.21a5.14 5.14 0 0 1-3.638-1.156 16.765 16.765 0 0 0 3.43-3.672 8.385 8.385 0 0 0 1.666-4.658Zm-2.448.374a6.318 6.318 0 0 1-1.258 3.536 10.226 10.226 0 0 1-2.686 2.72 3.661 3.661 0 0 1-.748-2.414 7.409 7.409 0 0 1 .818-3.332c.68-1.326 1.53-1.972 2.55-1.972.882 0 1.324.476 1.324 1.462Z" fill="#ff0"/></svg>