<svg xmlns="http://www.w3.org/2000/svg" width="49.383" height="19.332"><path d="M12.447 15.255a.714.714 0 0 0-.108-.486q-3.847 3.24-4.459 3.24l-.081-.081q0-.162 1.377-3.321l1.84-4.212c0-.486-.189-.729-.54-.729-.891 0-3.645 2.3-8.262 6.912.675-1.593 1.188-2.808 1.539-3.591l3.969-8.8a16.056 16.056 0 0 0 1.3-3.348c0-.567-.162-.837-.513-.837q-.324 0-.567.567l-3.24 7.668-1.3 3.213a8.93 8.93 0 0 1-1.971 2.59l-.891.756a1.543 1.543 0 0 0-.54 1c0 .081.054.108.054.189a.766.766 0 0 0 .27.243l.162-.081.054-.135 1.134-1.135C.81 17.226.38 18.441.38 18.576c0 .351.162.54.486.54a.911.911 0 0 0 .322-.108c1-1.134 2.16-2.376 3.537-3.726 2.187-2.214 3.7-3.483 4.509-3.807l.081.108a.932.932 0 0 1-.081.351c-1.323 2.943-2.106 4.671-2.4 5.211a3.428 3.428 0 0 0-.486 1.4c0 .378.189.567.594.567a5.826 5.826 0 0 0 .756-.054c.513-.081 1.944-1.026 4.266-2.835a1.155 1.155 0 0 0 .483-.968Zm10.044 0a.792.792 0 0 0-.108-.432 5.118 5.118 0 0 1-2.349 1.35l-.459-.162a9.145 9.145 0 0 0 1.215-3.348 9.049 9.049 0 0 0-.054-1.269.77.77 0 0 0-.864-.648 1.929 1.929 0 0 0-1.755 1.377 5.753 5.753 0 0 0-.486 2.376 2.789 2.789 0 0 0 .54 1.863 4.158 4.158 0 0 1-1.191 1.215 2.939 2.939 0 0 1-1.539.648c-.891 0-1.35-.729-1.35-2.214a5.951 5.951 0 0 1 1.161-3.429 6.313 6.313 0 0 1 3.4-2.295.472.472 0 0 0 .324-.486c0-.3-.162-.459-.486-.459a5.1 5.1 0 0 0-2.079.918 6.326 6.326 0 0 0-3.294 5.7c0 2.133.729 3.213 2.16 3.213 1.161 0 2.4-.756 3.7-2.241a2.665 2.665 0 0 0 .81.162 3.189 3.189 0 0 0 1.7-.513c.68-.381 1.004-.813 1.004-1.326Zm-2.565-3.024a10.605 10.605 0 0 1-1.053 3.321 1.871 1.871 0 0 1-.378-1.161 4.509 4.509 0 0 1 .324-1.566q.405-1.053.972-1.053c.081.027.135.189.135.459Zm19.926 3.024a.46.46 0 0 0-.216-.432 15.856 15.856 0 0 1-4.374 3.213l-.108-.108c.459-.891 1.08-2.295 1.863-4.158a21.091 21.091 0 0 0 1.3-3.429.518.518 0 0 0-.594-.594c-.864 0-3.159 2.079-6.912 6.264a18.526 18.526 0 0 1 1.026-2.619c.243-.486.643-1.323 1.265-2.511a1.471 1.471 0 0 0 .135-.594c0-.378-.162-.567-.513-.567-.729 0-2 .918-3.834 2.727a45.843 45.843 0 0 0-3.348 3.669c.486-1.026.972-2.052 1.431-3.078a20.391 20.391 0 0 0 1.188-2.916c0-.189-.135-.27-.432-.27-.459 0-.864.378-1.161 1.134l-.7 1.62a17.161 17.161 0 0 1-1.728 1.728 2.291 2.291 0 0 0-.972 1.512c0 .3.081.432.216.432a18.215 18.215 0 0 0 1.456-1.455 38.4 38.4 0 0 0-1.46 3.807c0 .324.135.486.432.486a1.188 1.188 0 0 0 .268-.054 13.789 13.789 0 0 0 1.728-1.674c.513-.621 1.053-1.215 1.566-1.809l2.187-2.43a9.88 9.88 0 0 1 1.836-1.62l.081.054.027.108c-.972 2.214-1.728 3.861-2.268 4.968-.351.945-.594 1.674-.756 2.133a.374.374 0 0 0 .382.324.98.98 0 0 0 .756-.324l3.078-3.51a19.882 19.882 0 0 1 4-3.753 17.05 17.05 0 0 1-1.597 3.726 15.666 15.666 0 0 0-1.458 3.321c0 .351.3.54.864.54a4.659 4.659 0 0 0 2.106-.945l2.079-1.377c.783-.513 1.161-1.026 1.161-1.539Zm9.531.135a1.188 1.188 0 0 0-.054-.274l-.162-.135c-1.269 1.057-2.16 1.786-2.673 2.135a5.871 5.871 0 0 1-3.051 1.271c-1.3 0-1.944-.594-1.944-1.809 0-.189.027-.459.054-.864a9.218 9.218 0 0 0 4.455-.972 3.875 3.875 0 0 0 2.241-3.645c0-.891-.54-1.35-1.647-1.35-1.242 0-2.565.7-4 2.079s-2.133 2.673-2.133 3.915c0 2.4.675 3.591 2 3.591a6.439 6.439 0 0 0 2.594-.516 13.086 13.086 0 0 0 2.511-1.485c1.215-.834 1.806-1.482 1.806-1.941Zm-2.187-3.969a2.974 2.974 0 0 1-1.647 2.484 5.307 5.307 0 0 1-2.943.972c.027 0-.27-.027-.837-.108a5.653 5.653 0 0 1 1.836-2.673 4.439 4.439 0 0 1 2.754-1.458c.567 0 .837.27.837.783Z"/></svg>