<svg xmlns="http://www.w3.org/2000/svg" width="166.27" height="46.345"><path d="M27.95 12.35C27.95 4.095 25.61 0 20.995 0 17.42 0 14.04 3.185 10.79 9.62a137.67 137.67 0 0 0-5.46 13.975C1.755 33.865 0 40.365 0 43.03c0 .78.26 1.3.78 1.495 1.365 0 2.86-3.64 4.615-10.92C6.89 27.43 8.255 22.555 9.49 19.11a52.367 52.367 0 0 1 6.89-13.455c1.495-2.08 2.86-3.12 4.16-3.12 1.43 0 2.6.975 3.445 2.99a11.538 11.538 0 0 1 1.04 4.875c0 5.4-1.3 9.555-3.835 12.415-1.365 1.495-3.7 2.99-7.15 4.55-2.535 1.17-3.835 2.4-3.835 3.77a4.439 4.439 0 0 0 1.82 3.12 44.052 44.052 0 0 1 4.29 4.55c1.82 2.725 3.12 4.81 3.965 6.305.585.845 1.1 1.235 1.56 1.235.715 0 1.04-.455 1.04-1.365 0-1.5-2.275-4.875-6.825-10.075L14.3 33.15a9.373 9.373 0 0 1-1.62-1.885l.39-.715a15.49 15.49 0 0 1 2.34-.845c8.38-2.6 12.54-8.385 12.54-17.355Zm20.995 23.01a2.861 2.861 0 0 0-.13-.65l-.39-.325c-3.055 2.535-5.2 4.29-6.435 5.135-2.925 2.015-5.4 3.055-7.345 3.055-3.12 0-4.68-1.43-4.68-4.355 0-.455.065-1.105.13-2.08A22.192 22.192 0 0 0 40.82 33.8a9.329 9.329 0 0 0 5.4-8.775c0-2.145-1.3-3.25-3.965-3.25-2.99 0-6.175 1.69-9.62 5S27.5 33.21 27.5 36.2c-.005 5.79 1.62 8.65 4.805 8.65a15.5 15.5 0 0 0 6.24-1.235 31.5 31.5 0 0 0 6.045-3.575c2.925-2.015 4.355-3.575 4.355-4.68Zm-5.265-9.555c0 2.275-1.3 4.29-3.965 5.98a12.777 12.777 0 0 1-7.085 2.345c.065 0-.65-.065-2.015-.26.455-1.95 1.885-4.1 4.42-6.435s4.745-3.51 6.63-3.51c1.365-.005 2.015.645 2.015 1.88Zm28.34 9.425c0-.065-.13-.325-.13-.39l-.65-.2a76.014 76.014 0 0 1-7.15 5.4q-4.193 2.73-6.63 2.73c-2.535 0-3.77-1.885-3.77-5.655 0-2.47 1.365-5.265 4.16-8.45s5.46-4.745 7.865-4.745c1.5 0 2.21.52 2.21 1.625a6.723 6.723 0 0 1-.845 2.34 25.987 25.987 0 0 0-1.1 2.47 3.988 3.988 0 0 0 1.1.91c.975-.195 1.755-1.1 2.4-2.6a9.176 9.176 0 0 0 .78-3.64c0-2.145-1.365-3.25-4.03-3.25-2.4 0-5.135 1.235-8.32 3.77-3.12 2.535-5.135 4.94-6.045 7.28a14.037 14.037 0 0 0-.585 4.745 12.933 12.933 0 0 0 .715 4.1c.59 1.815 1.435 2.79 2.475 2.92 1.365.195 2.145.26 2.275.26a14.074 14.074 0 0 0 7.6-2.34 51.1 51.1 0 0 0 7.15-5.655 2.206 2.206 0 0 0 .525-1.625Zm24.31-.585-.39-.39-.46.195c-.13.325-1.625 1.625-4.485 3.77-2.99 2.34-4.875 3.575-5.655 3.64l-.325-.26q0-.878 3.12-7.41t3.12-8.385a2.911 2.911 0 0 0-2.145-3.055 17.951 17.951 0 0 0-4.095-.325l-.39-2.145A1.678 1.678 0 0 0 83 19.18c-1.365 0-2.08.78-2.08 2.275a3.03 3.03 0 0 0 .975 2.6 23.3 23.3 0 0 1-3.25 5.4c-.715.975-2.08 2.535-4.1 4.81a3.564 3.564 0 0 0-1.17 1.95c0 .845.195 1.235.65 1.3a54.193 54.193 0 0 0 9.685-12.48 11.475 11.475 0 0 1 2.21-.26c1.56 0 2.34.455 2.34 1.3v.325a1.144 1.144 0 0 0-.065.39c-2.34 5.915-4.16 10.335-5.525 13.26l-1.29 3.37a1.682 1.682 0 0 0 1.755 1.43c2.275 0 6.37-2.6 12.35-7.735a1.9 1.9 0 0 0 .845-1.495Zm31.33.26a2.058 2.058 0 0 0-.26-1.04l-5.135 4.29a25.236 25.236 0 0 1-5.72 3.575 1.934 1.934 0 0 1-.455-.52 75.945 75.945 0 0 1 4.16-9.555 83.383 83.383 0 0 0 4.29-9.49c-.845-.065-1.5-.13-1.885-.13h-.325a21.124 21.124 0 0 0-2.795 3.12c-2.145 2.535-4.68 5.135-7.475 7.865-4.095 3.965-7.215 6.565-9.425 7.67a1.934 1.934 0 0 1-.52-.455 64.836 64.836 0 0 1 4.29-8.9 40.376 40.376 0 0 0 3.835-9.035 5.217 5.217 0 0 0-1.95-.26c-.325 0-.91.91-1.82 2.73l-1.755 3.575a28.556 28.556 0 0 1-3.835 4.025c-1.885 1.76-2.8 3.06-2.8 3.835 0 .715.195 1.04.65 1.04a6.191 6.191 0 0 0 2.02-1.885 46.594 46.594 0 0 0 1.625-2.145l.13.13c-2.665 5.915-4.03 9.295-4.03 10.205 0 .585.455.91 1.43.91 3.055 0 9.165-4.81 18.2-14.495l.13.13c-1.1 2.145-2.145 4.355-3.185 6.565-1.56 3.185-2.34 5.33-2.34 6.37s.52 1.56 1.625 1.56c1.365 0 3.38-.845 6.175-2.535a48.38 48.38 0 0 0 5.72-4.095 3.814 3.814 0 0 0 1.43-3.055Zm17.16.195c0-.585-.2-.845-.52-.845a29.621 29.621 0 0 0-3.445 2.665 30.448 30.448 0 0 1-7.15 4.68l-.39-.39c.975-2.34 1.69-4.1 2.275-5.2 3.64-8.06 5.72-12.74 6.24-13.975h-2.925c-1.495 3.38-2.34 5.265-2.535 5.59a55.525 55.525 0 0 1-3.705 4.16 30.136 30.136 0 0 0-3.64 4.16c0 .65.065 1.04.26 1.17l.52.13c1.755-1.625 2.99-2.8 3.77-3.64l.13.13c-2.4 5.005-3.64 8.19-3.64 9.685 0 .715.455 1.04 1.43 1.04 1.43 0 3.64-.975 6.565-2.99a49.967 49.967 0 0 0 5.98-4.615 2.226 2.226 0 0 0 .78-1.755Zm-.91-20.28c0-1.365-.39-2.08-1.17-2.08a1.942 1.942 0 0 0-1.82 1.1l-.65 2.21c.065.975.52 1.495 1.3 1.495q2.34.005 2.34-2.725Zm22.36-11.115c0-.845-.26-1.3-.715-1.3-2.015 0-2.925 3.185-5.265 9.945l-1.17 3.51h-5.265c-.715 0-1.1.39-1.235 1.235a1.109 1.109 0 0 0 1.235.975h4.16l-3.185 8.125c-.2.585-1.365 1.885-3.38 3.9l-4.03 4.03a3.068 3.068 0 0 0-.975 2.015 3.354 3.354 0 0 0 .13.715l.26.39c2.21-2.145 4.16-3.965 5.85-5.33a19.346 19.346 0 0 1-2.275 5.46 12.513 12.513 0 0 0-1.885 5.59c0 .975.975 1.5 2.925 1.5q1.657 0 6.435-3.12c3.185-2.08 5.2-3.64 5.915-4.615a3.268 3.268 0 0 0 .78-1.82c0-.585-.13-.91-.39-.91a41.946 41.946 0 0 0-4.615 3.51c-3.055 2.47-5.265 3.835-6.76 4.095-.585-.2-.91-.455-.91-.91 0-.585 1.365-4.225 4.16-10.92 2.4-5.72 4.03-9.62 5-11.7h3.51c.975 0 1.43-.52 1.43-1.495a1.21 1.21 0 0 0-.26-.715h-3.765c0-1.5.715-3.51 2.145-6.11s2.145-4.62 2.145-6.05Z" fill="#fff"/></svg>