<svg xmlns="http://www.w3.org/2000/svg" width="100.56" height="23.616"><path d="M12.384 2.972A2.283 2.283 0 0 0 10.056.38a5.591 5.591 0 0 0-2.928 1.08 16.249 16.249 0 0 0-4.944 5.524A14.083 14.083 0 0 0 0 14.016c0 1.896.816 2.856 2.424 2.856a5.723 5.723 0 0 0 2.808-.864 10.537 10.537 0 0 0 2.3-1.848l.048.048a12.026 12.026 0 0 1-.764 1.944l-1.008 1.872-.744 1.3-.624.912a2.23 2.23 0 0 0-.456.96.24.24 0 0 0 .264.264c.312 0 .816-.5 1.536-1.488a15.533 15.533 0 0 0 1.584-2.788c.432-.984.864-1.968 1.272-2.952.456-1.032.768-1.728.96-2.04l.792-1.3a3.536 3.536 0 0 0 .576-1.3c0-.312-.168-.456-.528-.456a.825.825 0 0 0-.648.408c-.408.752-.72 1.328-.888 1.736a7.606 7.606 0 0 1-1.464 1.752 18.335 18.335 0 0 1-1.8 1.608 5.375 5.375 0 0 1-3.12 1.272c-1.036 0-1.56-.288-1.56-.888a19.5 19.5 0 0 1 .288-2.736c.336-1.272.624-2.208.84-2.832A17.883 17.883 0 0 1 4.512 4.92a10.34 10.34 0 0 1 3.84-3.288 3.563 3.563 0 0 1 1.392-.336 1.715 1.715 0 0 1 1.752 1.848 4.236 4.236 0 0 1-2.064 3.428l.052.82a3.717 3.717 0 0 0 2.184-1.7 5.148 5.148 0 0 0 .716-2.72Zm8.352 10.468a.7.7 0 0 0-.1-.384 4.55 4.55 0 0 1-2.088 1.2l-.404-.144a8.129 8.129 0 0 0 1.08-2.976 8.044 8.044 0 0 0-.048-1.128.684.684 0 0 0-.768-.576 1.715 1.715 0 0 0-1.56 1.224 5.114 5.114 0 0 0-.432 2.116 2.479 2.479 0 0 0 .48 1.656 3.7 3.7 0 0 1-1.056 1.08 2.612 2.612 0 0 1-1.368.576c-.792 0-1.2-.648-1.2-1.968a5.29 5.29 0 0 1 1.032-3.052 5.612 5.612 0 0 1 3.024-2.04.42.42 0 0 0 .288-.432c0-.264-.144-.408-.432-.408A4.533 4.533 0 0 0 15.336 9a5.624 5.624 0 0 0-2.928 5.064c0 1.9.648 2.856 1.92 2.856 1.032 0 2.136-.672 3.288-1.992a2.369 2.369 0 0 0 .72.144 2.834 2.834 0 0 0 1.512-.456c.6-.336.888-.72.888-1.176Zm-2.28-2.688a9.427 9.427 0 0 1-.936 2.952 1.663 1.663 0 0 1-.336-1.032 4.008 4.008 0 0 1 .288-1.392q.36-.936.864-.936c.072.028.12.168.12.408Zm11.208 2.688a.7.7 0 0 0-.1-.384 4.549 4.549 0 0 1-2.088 1.2l-.408-.144a8.129 8.129 0 0 0 1.08-2.976 8.044 8.044 0 0 0-.048-1.128.684.684 0 0 0-.768-.576 1.715 1.715 0 0 0-1.56 1.224 5.114 5.114 0 0 0-.428 2.116 2.479 2.479 0 0 0 .48 1.656 3.7 3.7 0 0 1-1.056 1.08 2.612 2.612 0 0 1-1.368.576c-.792 0-1.2-.648-1.2-1.968a5.29 5.29 0 0 1 1.032-3.048 5.612 5.612 0 0 1 3.024-2.04.42.42 0 0 0 .288-.432c0-.264-.144-.408-.432-.408a4.533 4.533 0 0 0-1.848.816 5.624 5.624 0 0 0-2.928 5.064c0 1.9.648 2.856 1.92 2.856 1.032 0 2.136-.672 3.288-1.992a2.369 2.369 0 0 0 .72.144 2.834 2.834 0 0 0 1.512-.456c.6-.34.888-.724.888-1.18Zm-2.28-2.688a9.427 9.427 0 0 1-.936 2.952 1.663 1.663 0 0 1-.336-1.032 4.008 4.008 0 0 1 .288-1.392q.36-.936.864-.936c.072.028.12.168.12.408Zm12.96 2.64c0-.216-.048-.336-.12-.336-.792.72-1.392 1.248-1.848 1.608L35.76 16.92c.936-2.448 1.724-4.348 2.324-5.688 0-.264-.072-.384-.192-.384-.312 0-.984.648-1.992 1.92l-1.964 2.472a4 4 0 0 1-.72.528 1.845 1.845 0 0 1-.816.312c-.816 0-1.224-.528-1.224-1.608a4.76 4.76 0 0 1 2.016-3.6 6 6 0 0 1 3.864-1.632 2.565 2.565 0 0 1 1.848.932c.264-.024.408-.288.408-.792a.447.447 0 0 0-.1-.264 3.288 3.288 0 0 0-2.04-.648 7.481 7.481 0 0 0-3.7 1.248 6.5 6.5 0 0 0-2.8 2.716 4.351 4.351 0 0 0-.36 1.776c0 1.8.648 2.712 1.92 2.712 1.08 0 2.232-.864 3.432-2.616l.048.048c-.552 1.512-.936 2.52-1.2 3.048l-1.628 2.448a5.782 5.782 0 0 0-1.18 2.712c0 .7.168 1.056.528 1.056.384 0 .888-.7 1.536-2.088l1.2-2.664a6.142 6.142 0 0 1 1.416-1.536l1.632-1.32 2.04-1.8a1.055 1.055 0 0 0 .288-.816ZM48.192.432c0-.288-.144-.432-.408-.432a.475.475 0 0 0-.5.288c-1.008 2.784-1.608 4.464-1.8 5.064l-.36 1.152-.864 2.3-.676 1.78a4.618 4.618 0 0 1-1.1 1.44l-.936.792c-.408.408-.624.72-.624.96 0 .288.072.456.192.48a9.417 9.417 0 0 0 1.724-1.684c-.672 2.184-.912 3.168-1.1 3.864.048.312.312.48.768.48a4.485 4.485 0 0 0 2.448-.84c1.752-1.152 2.616-2.016 2.616-2.568q0-.36-.288-.36c-1.944 1.728-3.216 2.64-3.768 2.712a1.4 1.4 0 0 0-.312.048.7.7 0 0 1-.264-.192c1.032-3.192 1.824-5.568 2.424-7.128l2.376-6.456a5.745 5.745 0 0 0 .452-1.7ZM56.04 13.56a1.056 1.056 0 0 0-.048-.24l-.144-.12c-1.128.936-1.92 1.584-2.376 1.9a5.219 5.219 0 0 1-2.712 1.124c-1.152 0-1.728-.528-1.728-1.608 0-.168.024-.408.048-.768a8.194 8.194 0 0 0 3.96-.864 3.444 3.444 0 0 0 1.992-3.24c0-.792-.48-1.2-1.464-1.2a5.4 5.4 0 0 0-3.552 1.848 5.056 5.056 0 0 0-1.896 3.48c0 2.136.6 3.192 1.776 3.192a5.723 5.723 0 0 0 2.3-.456 11.632 11.632 0 0 0 2.232-1.32c1.084-.744 1.612-1.316 1.612-1.728Zm-1.944-3.528a2.644 2.644 0 0 1-1.464 2.208 4.718 4.718 0 0 1-2.616.864c.024 0-.24-.024-.744-.1a5.025 5.025 0 0 1 1.632-2.372 3.946 3.946 0 0 1 2.448-1.3c.504.004.744.24.744.7Zm23.808 3.408a.409.409 0 0 0-.192-.384 14.094 14.094 0 0 1-3.888 2.856l-.1-.1c.408-.792.96-2.04 1.656-3.7a18.747 18.747 0 0 0 1.156-3.04.461.461 0 0 0-.528-.528c-.768 0-2.808 1.848-6.144 5.568a16.467 16.467 0 0 1 .912-2.328c.216-.432.576-1.176 1.128-2.232a1.308 1.308 0 0 0 .12-.528c0-.336-.144-.5-.456-.5-.648 0-1.776.816-3.408 2.424a40.75 40.75 0 0 0-2.976 3.26c.432-.912.864-1.824 1.272-2.736a18.125 18.125 0 0 0 1.056-2.592c0-.168-.12-.24-.384-.24-.408 0-.768.336-1.032 1.008l-.624 1.44a15.255 15.255 0 0 1-1.536 1.536 2.036 2.036 0 0 0-.864 1.348c0 .264.072.384.192.384a16.191 16.191 0 0 0 1.3-1.3 34.133 34.133 0 0 0-1.3 3.384c0 .288.12.432.384.432a1.056 1.056 0 0 0 .24-.048 12.257 12.257 0 0 0 1.536-1.488c.456-.552.936-1.08 1.392-1.608l1.944-2.156a8.782 8.782 0 0 1 1.632-1.44l.072.048.024.1a128.9 128.9 0 0 1-2.016 4.416c-.312.84-.528 1.488-.672 1.9a.333.333 0 0 0 .336.276.872.872 0 0 0 .672-.288l2.736-3.12a17.672 17.672 0 0 1 3.552-3.336 15.156 15.156 0 0 1-1.412 3.312 13.926 13.926 0 0 0-1.3 2.952c0 .312.264.48.768.48a4.142 4.142 0 0 0 1.872-.84l1.848-1.224c.696-.456 1.032-.912 1.032-1.368Zm10.632.216c0-.336-.072-.5-.24-.5-1.8 1.68-3.192 2.64-4.2 2.856l1.344-2.784a25.455 25.455 0 0 0 1.128-2.568c0-.1-.12-.144-.384-.144a1.217 1.217 0 0 0-.528.072c-.7.936-1.368 1.9-2.064 2.856-1.392 1.796-2.448 2.684-3.168 2.684-.6 0-.888-.648-.888-1.92a4.6 4.6 0 0 1 .024-.48c.072-.984.792-1.968 2.184-3a6.323 6.323 0 0 1 3.552-1.44 4.438 4.438 0 0 1 1.8.576 1.063 1.063 0 0 0 .288-.36v-.216c0-.5-.624-.744-1.872-.744a7.557 7.557 0 0 0-4.536 1.656 5.034 5.034 0 0 0-2.376 3.96c0 1.944.576 2.9 1.7 2.9a4.688 4.688 0 0 0 .7-.048 3.477 3.477 0 0 0 1.368-.98l1.152-1.272.048.048a16.531 16.531 0 0 0-.624 1.728c.048.312.288.48.72.48a6.876 6.876 0 0 0 2.808-1.368c1.368-.936 2.064-1.584 2.064-1.992Zm12.024-.192q0-.36-.216-.36c-1.9 1.584-3.36 2.376-4.368 2.376a7.079 7.079 0 0 0 2.592-5.136 1.679 1.679 0 0 0-1.92-1.872 3.247 3.247 0 0 0-1.752.768 5.053 5.053 0 0 0-1.32 1.416l-.048-.048c.12-.408.288-1.032.552-1.872a.994.994 0 0 0-.336-.048c-.456 0-.648.048-.768.456a3.478 3.478 0 0 1-.72 1.248 22.371 22.371 0 0 1-1.608 1.656c-.288.264-.576.552-.888.816a1.66 1.66 0 0 0-.6.984.454.454 0 0 0 .288.408c1.008-1.056 1.776-1.848 2.3-2.352l.048.048a34.945 34.945 0 0 0-1.824 5.5 27.394 27.394 0 0 0-1.148 5.444c0 .408.12.624.336.624.168 0 .312-.12.48-.384a1.289 1.289 0 0 0 .288-.576c.6-3.384 1.032-5.448 1.272-6.24a15.673 15.673 0 0 1 3.1-5.352c.936-1.08 1.752-1.632 2.448-1.632.5 0 .768.336.768 1.008a5.391 5.391 0 0 1-1.032 3.028 9.923 9.923 0 0 1-2.208 2.4 4.3 4.3 0 0 0-.576.048c-.072 0-.624-.048-.912-.048-.6 0-.888.144-.888.408a1.31 1.31 0 0 0 1.272.744 2.38 2.38 0 0 0 1.44-.384 7.85 7.85 0 0 0 5.64-2.376.934.934 0 0 0 .308-.7Z"/></svg>