<svg xmlns="http://www.w3.org/2000/svg" width="127.092" height="84.817"><path d="M47.882 10.68c0-6.5-4.094-9.968-10.769-9.968a24.757 24.757 0 0 0-8.633 1.424A1.888 1.888 0 0 0 26.344 0a2.45 2.45 0 0 0-2.136 1.513l-.8 2.759c-5.518 2.581-8.633 5.162-9.434 7.743a4.639 4.639 0 0 0 1.958 2.136 45.929 45.929 0 0 1 4.806-2.136c-3.649 7.743-6.408 13.617-8.455 17.444a18.171 18.171 0 0 0-2.759.089 1.908 1.908 0 0 0-1.6 1.958 3.237 3.237 0 0 0 1.869 2.848c-1.6 3.115-3.382 7.031-5.34 11.659C1.513 52.866 0 57.138 0 58.829c0 1.158 1.246 2.848 2.314 2.848a2.114 2.114 0 0 0 2.047-1.335l.8-2.492c1.158-2.937 2.048-5.073 2.582-6.586l6.764-15.486c2.67.356 4.094.534 4.183.534 6.675 0 13.083-2.581 19.313-7.743q9.879-8.143 9.879-17.889Zm-3.471 0c0 4.539-2.848 9.167-8.455 13.8-5.607 4.539-10.858 6.853-15.753 6.853-.089 0-1.246-.178-3.382-.534L26.966 8.277A22.857 22.857 0 0 1 37.112 5.34a9.492 9.492 0 0 1 4.9 1.157 4.673 4.673 0 0 1 2.399 4.183Zm36.134-6.586c0-2.047-1.335-3.827-3.2-3.827-3.293 0-7.743 4.272-13.528 12.727A146.869 146.869 0 0 0 53.4 30.887c-4.361 8.633-6.853 14.952-7.565 18.779l-.712 3.738c.534 2.67 1.691 4 3.56 4 2.225 0 4.717-1.513 7.387-4.539a36.5 36.5 0 0 0 4.984-7.654 3.379 3.379 0 0 0 .534-1.6 1.99 1.99 0 0 0-.267-.89l-.8-.445c-.8 0-2.047 1.424-3.738 4.361-1.869 3.115-3.916 4.895-5.963 5.429-.8-.267-1.246-.712-1.246-1.157a18.444 18.444 0 0 1 1.423-4.722 29.038 29.038 0 0 1 2.136-4.717c3.115-3.115 5.963-5.785 8.544-8.188A135.462 135.462 0 0 0 73.158 19.58c4.895-6.853 7.387-12.015 7.387-15.486Zm-4.806 2.493c0 3.115-2.67 8.1-8.01 15.13-4.717 6.23-8.811 10.68-12.193 13.35 3.916-7.921 6.675-13.261 8.366-16.02 4.272-7.476 7.832-12.015 10.769-13.528a.944.944 0 0 1 1.068 1.068ZM89.89 32.129c0-2.492-1.513-3.738-4.45-3.738-4.183 0-8.188 2.937-12.015 8.722-3.56 5.34-5.34 10.235-5.34 14.6 0 4.005 1.513 5.963 4.45 5.963 3.115 0 5.963-2.581 8.366-7.832l.178.178a53.297 53.297 0 0 0-.356 2.759 7.876 7.876 0 0 0 2.759 5.7 12.589 12.589 0 0 0 2.848.89c1.424-.097 2.136-.72 2.136-1.784 0-.89-.623-1.691-1.958-2.492s-1.958-2.314-1.958-4.539c0-2.047.89-4.806 2.581-8.1 1.691-3.382 2.581-5.429 2.581-6.141a3.209 3.209 0 0 0-.534-1.78 8.831 8.831 0 0 0 .712-2.406Zm-3.2 2.937c-.8.623-2.759 3.827-5.874 9.79q-4 7.743-7.209 7.743c-.8 0-1.246-.8-1.246-2.4 0-2.759 1.246-6.141 3.827-10.235 2.759-4.539 5.34-6.764 7.832-6.764a2.908 2.908 0 0 1 2.666 1.866Zm40.406 7.209c0-.979-.356-1.513-1.068-1.513a39.963 39.963 0 0 0-5.607 6.408 20.367 20.367 0 0 1-6.23 5.607 28.534 28.534 0 0 1 2.314-5.518l4.272-7.387q3.2-5.607 3.2-7.209c0-1.513-.534-2.225-1.691-2.225-.89 0-1.869.712-3.026 2.225q-12.683 16.955-17.088 17.889a.869.869 0 0 1-.712-.623l-.267-.356c.356-2.492 2.225-5.607 5.7-9.345 3.293-3.56 4.984-5.785 4.984-6.586a1.6 1.6 0 0 0-1.78-1.78c-2.225 0-5.073 2.759-8.722 8.366-3.649 5.518-5.429 9.612-5.429 12.193s.979 3.916 2.848 3.916c2.225 0 4.9-1.6 8.1-4.717.178-.089 2.225-2.4 6.23-6.764-2.581 5.251-4.361 9.256-5.518 12.015-14.69 8.01-21.988 14.952-21.988 20.737 0 4.806 1.869 7.209 5.7 7.209 4.272 0 8.455-3.471 12.638-10.413 1.513-2.4 3.916-7.654 7.387-15.575a38.746 38.746 0 0 0 14.948-14.062 4.814 4.814 0 0 0 .801-2.492Zm-24.39 25.012-3.74 7.473q-3.337 5.34-6.408 5.34c-1.424 0-2.136-1.068-2.136-3.293s1.958-5.073 5.785-8.366a42.648 42.648 0 0 1 8.9-6.052Z" fill="#fff"/></svg>