<svg xmlns="http://www.w3.org/2000/svg" width="95.139" height="7.205"><path data-name="パス 2274" d="M3.079 2.794 5.73.173h-.946L.746 4.114.714.173h-.715v6.9h.748V5.038c.814-.8 1.43-1.386 1.848-1.771l2.662 3.806h.8ZM14.64 6.413H9.404v-2.54h2.673v-.66H9.404V.858h4.983v-.66H8.722v6.875h5.918Zm4.191-6.24h-.726v6.9h.726Zm9.856 4.851a1.744 1.744 0 0 0-.616-1.32 2.185 2.185 0 0 0-1.386-.561l-2.439-.14a1.367 1.367 0 0 1-.836-.352 1.022 1.022 0 0 1-.352-.748c0-.4.275-.7.836-.935a3.435 3.435 0 0 1 1.364-.275 4.9 4.9 0 0 1 2.464.748l.418-.462A4.614 4.614 0 0 0 25.357 0a4.213 4.213 0 0 0-1.881.44c-.737.363-1.1.825-1.1 1.408a1.722 1.722 0 0 0 1.738 1.848l2.409.176c.946.066 1.419.44 1.419 1.133a1.33 1.33 0 0 1-.9 1.221 3.726 3.726 0 0 1-1.6.33 4.536 4.536 0 0 1-3.069-1.21l-.429.55A6.444 6.444 0 0 0 23.66 6.93a5.868 5.868 0 0 0 1.958.275 3.951 3.951 0 0 0 2.028-.506 1.864 1.864 0 0 0 1.041-1.672Zm9.075 1.389h-5.236v-2.54h2.673v-.66h-2.673V.858h4.983v-.66h-5.663v6.875h5.918Zm9.471-6.24h-.7v6.02L41.711.173h-.748v6.9h.715l.033-5.874 4.719 5.874h.8Zm16.566.022h-5.973v.66h2.64v6.218h.693V.858h2.64Zm10.065 3.424A3.3 3.3 0 0 0 72.709.99a4.176 4.176 0 0 0-2.772-.924 3.972 3.972 0 0 0-2.684.99 3.279 3.279 0 0 0-1.188 2.563 3.3 3.3 0 0 0 1.21 2.541 3.943 3.943 0 0 0 2.662 1.023 4.077 4.077 0 0 0 2.739-.957 3.257 3.257 0 0 0 1.188-2.607Zm-.7 0a2.629 2.629 0 0 1-1 2.1 3.317 3.317 0 0 1-2.222.814 3.119 3.119 0 0 1-2.178-.8 2.736 2.736 0 0 1-.924-2.112 2.582 2.582 0 0 1 .979-2.013 3.178 3.178 0 0 1 2.123-.8 3.414 3.414 0 0 1 2.211.759 2.541 2.541 0 0 1 1.007 2.052ZM85.304.173l-1.98 5.874L81.355.173h-.737l-2 5.841-1.96-5.841h-.737l2.343 6.867.7.033 1.991-5.929 2.017 5.929.715-.033L86.019.173Zm9.834 0h-.7v6.02L89.617.173h-.748v6.9h.715l.033-5.874 4.718 5.874h.8Z" fill="#fff"/></svg>