<svg xmlns="http://www.w3.org/2000/svg" width="156.09" height="31.779"><path data-name="パス 2294" d="M17.49 3.432A3.208 3.208 0 0 0 13.99 0c-2.211 0-4.455.99-6.765 2.937a24.683 24.683 0 0 0-4.884 5.841 14.4 14.4 0 0 0-2.337 7.656 6.52 6.52 0 0 0 1.448 4.455 5.4 5.4 0 0 0 4.257 1.749 8.756 8.756 0 0 0 5.016-1.65 8.248 8.248 0 0 0 3.2-4.191 2.568 2.568 0 0 0-.957-.4c-1.947 3.3-4.191 4.95-6.7 4.95q-4.851 0-4.851-4.95a10.889 10.889 0 0 1 .924-4.455 24.118 24.118 0 0 1 4.587-6.93c2.409-2.574 4.752-3.861 7-3.861 1.485 0 2.244.924 2.244 2.739a6.955 6.955 0 0 1-1.815 4.29 8.98 8.98 0 0 1-3.729 2.871 12.862 12.862 0 0 0-2.277.924 1.741 1.741 0 0 0-.429 1.056c.1.231.2.33.363.33a5.481 5.481 0 0 0 2.178-.825 22.648 22.648 0 0 0 2.441-1.481 12.007 12.007 0 0 0 2.871-3 7.279 7.279 0 0 0 1.683-3.762c.032-.432.032-.696.032-.861Zm11.286 14.355a.968.968 0 0 0-.132-.528c-1.353 1.089-2.31 1.647-2.871 1.647l-.561-.2a11.177 11.177 0 0 0 1.485-4.092 11.06 11.06 0 0 0-.066-1.551.941.941 0 0 0-1.056-.792 2.358 2.358 0 0 0-2.145 1.683 7.032 7.032 0 0 0-.594 2.9 3.409 3.409 0 0 0 .66 2.277 5.082 5.082 0 0 1-1.452 1.494 3.592 3.592 0 0 1-1.881.792c-1.089 0-1.65-.891-1.65-2.706a7.274 7.274 0 0 1 1.419-4.191 7.716 7.716 0 0 1 4.158-2.8.577.577 0 0 0 .4-.594c0-.363-.2-.561-.594-.561a6.233 6.233 0 0 0-2.541 1.122 7.732 7.732 0 0 0-4.026 6.963c0 2.607.891 3.927 2.64 3.927 1.419 0 2.937-.924 4.521-2.739a3.257 3.257 0 0 0 .99.2 3.9 3.9 0 0 0 2.075-.632c.825-.464 1.221-.992 1.221-1.619Zm-3.135-3.7a12.962 12.962 0 0 1-1.287 4.063 2.286 2.286 0 0 1-.462-1.419 5.511 5.511 0 0 1 .4-1.914q.495-1.287 1.188-1.287c.095.033.161.231.161.561Zm24.354 3.7a.562.562 0 0 0-.264-.528c-2.409 2.211-4.191 3.531-5.346 3.927l-.132-.132c.561-1.089 1.32-2.8 2.277-5.082a25.778 25.778 0 0 0 1.584-4.191.633.633 0 0 0-.726-.726c-1.056 0-3.861 2.541-8.448 7.656a22.643 22.643 0 0 1 1.254-3.205c.3-.594.792-1.617 1.551-3.069a1.8 1.8 0 0 0 .165-.726c0-.462-.2-.693-.627-.693-.891 0-2.442 1.122-4.686 3.333a56.03 56.03 0 0 0-4.093 4.492c.594-1.254 1.188-2.508 1.749-3.762a24.923 24.923 0 0 0 1.451-3.564c0-.231-.165-.33-.528-.33-.561 0-1.056.462-1.419 1.386l-.853 1.98a20.975 20.975 0 0 1-2.112 2.112 2.8 2.8 0 0 0-1.188 1.848c0 .363.1.528.264.528a22.262 22.262 0 0 0 1.782-1.782 46.933 46.933 0 0 0-1.785 4.653c0 .4.165.594.528.594a1.452 1.452 0 0 0 .33-.066 16.853 16.853 0 0 0 2.112-2.046c.627-.759 1.287-1.485 1.914-2.211l2.673-2.97a12.075 12.075 0 0 1 2.244-1.98l.1.066.033.132c-1.189 2.706-2.113 4.719-2.773 6.075-.429 1.152-.722 2.043-.922 2.6a.458.458 0 0 0 .462.4 1.2 1.2 0 0 0 .924-.4l3.762-4.29c2.343-2.607 3.993-4.125 4.884-4.587a20.839 20.839 0 0 1-1.947 4.554 19.148 19.148 0 0 0-1.785 4.063c0 .429.363.66 1.056.66a5.7 5.7 0 0 0 2.574-1.155l2.541-1.683c.958-.627 1.42-1.254 1.42-1.881Zm8.778.033c0-.3-.1-.429-.264-.429a15.038 15.038 0 0 0-1.749 1.353 15.458 15.458 0 0 1-3.63 2.376l-.2-.2c.495-1.188.858-2.079 1.155-2.64 1.848-4.092 2.9-6.468 3.168-7.1H55.77c-.759 1.716-1.188 2.673-1.287 2.838a28.189 28.189 0 0 1-1.879 2.119 15.3 15.3 0 0 0-1.85 2.112c0 .33.033.528.132.594l.264.066c.891-.825 1.518-1.419 1.914-1.848l.066.066c-1.221 2.541-1.848 4.158-1.848 4.917 0 .363.231.528.726.528a7 7 0 0 0 3.333-1.518 25.367 25.367 0 0 0 3.036-2.348 1.13 1.13 0 0 0 .396-.886Zm-.462-10.3c0-.693-.2-1.056-.594-1.056a.986.986 0 0 0-.924.561l-.33 1.122c.033.5.264.759.66.759q1.188 0 1.188-1.382Zm16.3 10.2a2.279 2.279 0 0 1-.165-.33h-.132l-2.473 2.08a11.823 11.823 0 0 1-2.805 1.782l-.231-.2 2.112-4.653a31.717 31.717 0 0 0 1.881-4.62c0-.5-.264-.726-.825-.726-.726 0-2.475 1.287-5.214 3.828-1.749 1.65-3.267 3.168-4.521 4.521h-.134c2.343-5.181 3.5-7.755 3.5-7.689 0-.3-.132-.462-.363-.462a1.566 1.566 0 0 0-1.287.66 6.83 6.83 0 0 0-.627 1.419 4.2 4.2 0 0 1-.66 1.353q-.544.643-1.386 1.485c-.363.33-.693.66-1.056.957a2.293 2.293 0 0 0-.759 1.254c0 .4.1.627.33.66.759-.759 1.353-1.353 1.716-1.782l-1.716 4.589c0 .495.165.726.528.726.561 0 2.112-1.452 4.686-4.356 2.706-3 4.587-4.686 5.676-4.983l.1.132-.1.4c-.693 1.32-1.353 2.64-2.013 3.993a23.855 23.855 0 0 0-1.584 4.154c.066.429.363.66.891.66.1 0 .33-.033.693-.066a10.389 10.389 0 0 0 3.036-1.716 10.163 10.163 0 0 0 2.739-2.277 1.767 1.767 0 0 0 .165-.792Zm14.685 0c0-.3-.066-.462-.165-.462-1.089.99-1.914 1.716-2.541 2.211l-3.6 3.1c1.287-3.366 2.376-5.973 3.2-7.821 0-.363-.1-.528-.264-.528-.429 0-1.353.891-2.739 2.64l-2.706 3.4a5.5 5.5 0 0 1-.99.726 2.537 2.537 0 0 1-1.122.429c-1.122 0-1.683-.726-1.683-2.211q0-2.623 2.772-4.95a8.251 8.251 0 0 1 5.313-2.244 3.526 3.526 0 0 1 2.541 1.287c.363-.033.561-.4.561-1.089a.614.614 0 0 0-.132-.363 4.521 4.521 0 0 0-2.805-.891 10.286 10.286 0 0 0-5.082 1.716 8.938 8.938 0 0 0-3.85 3.731 5.982 5.982 0 0 0-.5 2.442c0 2.475.891 3.729 2.64 3.729 1.485 0 3.069-1.188 4.719-3.6l.066.066c-.759 2.082-1.287 3.468-1.65 4.194l-2.244 3.366a7.95 7.95 0 0 0-1.617 3.729c0 .957.231 1.452.726 1.452.528 0 1.221-.957 2.112-2.871l1.648-3.663a8.446 8.446 0 0 1 1.949-2.112l2.244-1.815 2.807-2.475a1.451 1.451 0 0 0 .394-1.122Zm27.59-15.344c0-1.584-.957-2.376-2.838-2.376a10.754 10.754 0 0 0-6.732 2.475q-3.366 2.673-3.366 6.138a3.941 3.941 0 0 0 2.112 3.4l3.96 2.046a3.606 3.606 0 0 1 2.112 3.135c0 2.772-2.805 4.158-8.448 4.158-2.9 0-4.356-.594-4.356-1.749a1.645 1.645 0 0 1 .594-1.122 5.435 5.435 0 0 1 3.894-1.155 32.3 32.3 0 0 1 5.181.627c.165-.1.231-.462.231-1.089a16.515 16.515 0 0 0-5.115-.726 10.537 10.537 0 0 0-3.927.627 3.071 3.071 0 0 0-2.211 2.937c0 1.023.693 1.815 2.112 2.31a10.31 10.31 0 0 0 3.465.561 16.054 16.054 0 0 0 6.336-1.089c2.343-.99 3.531-2.574 3.531-4.752a4.058 4.058 0 0 0-2.145-3.531c-1.32-.693-2.64-1.353-3.96-2.013a3.6 3.6 0 0 1-2.145-3.069 5.023 5.023 0 0 1 1.188-2.673 7.509 7.509 0 0 1 2.145-2.112q3.712-2.178 5.544-2.178c1.089 0 1.65.429 1.65 1.32 0 1.089-1.089 2.178-3.234 3.3a14.12 14.12 0 0 1-4.719 1.683 2.907 2.907 0 0 0-.2 1.089 16.609 16.609 0 0 0 5.115-1.452 7.482 7.482 0 0 0 3.894-3.4 3.1 3.1 0 0 0 .332-1.32Zm11.088 15.411a.968.968 0 0 0-.132-.528c-1.353 1.089-2.31 1.65-2.871 1.65l-.561-.2a11.177 11.177 0 0 0 1.485-4.092 11.059 11.059 0 0 0-.066-1.551.941.941 0 0 0-1.056-.792 2.358 2.358 0 0 0-2.145 1.683 7.032 7.032 0 0 0-.594 2.9 3.409 3.409 0 0 0 .66 2.277 5.081 5.081 0 0 1-1.452 1.485 3.592 3.592 0 0 1-1.881.792c-1.089 0-1.65-.891-1.65-2.706a7.274 7.274 0 0 1 1.419-4.191 7.716 7.716 0 0 1 4.158-2.8.577.577 0 0 0 .4-.594c0-.363-.2-.561-.594-.561a6.233 6.233 0 0 0-2.541 1.122 7.732 7.732 0 0 0-4.026 6.963c0 2.607.891 3.927 2.64 3.927 1.419 0 2.937-.924 4.521-2.739a3.257 3.257 0 0 0 .99.2 3.9 3.9 0 0 0 2.079-.627c.821-.463 1.217-.991 1.217-1.618Zm-3.135-3.7a12.962 12.962 0 0 1-1.287 4.059 2.286 2.286 0 0 1-.462-1.419 5.511 5.511 0 0 1 .4-1.914q.495-1.287 1.188-1.287c.095.037.161.235.161.565Zm15.411 3.7a.968.968 0 0 0-.132-.528c-1.353 1.089-2.31 1.65-2.871 1.65l-.561-.2a11.177 11.177 0 0 0 1.485-4.092 11.062 11.062 0 0 0-.066-1.551.941.941 0 0 0-1.056-.792 2.358 2.358 0 0 0-2.145 1.685 7.032 7.032 0 0 0-.594 2.9 3.409 3.409 0 0 0 .66 2.277 5.082 5.082 0 0 1-1.452 1.485 3.592 3.592 0 0 1-1.881.792c-1.089 0-1.65-.891-1.65-2.706a7.274 7.274 0 0 1 1.417-4.187 7.716 7.716 0 0 1 4.158-2.8.577.577 0 0 0 .4-.594c0-.363-.2-.561-.594-.561a6.232 6.232 0 0 0-2.541 1.122 7.732 7.732 0 0 0-4.023 6.958c0 2.607.891 3.927 2.64 3.927 1.419 0 2.937-.924 4.521-2.739a3.257 3.257 0 0 0 .99.2 3.9 3.9 0 0 0 2.079-.627c.82-.464 1.216-.992 1.216-1.619Zm-3.135-3.7a12.962 12.962 0 0 1-1.287 4.059 2.286 2.286 0 0 1-.462-1.419 5.511 5.511 0 0 1 .4-1.914q.5-1.287 1.188-1.287c.095.037.161.235.161.565Zm18.975 3.63a2.279 2.279 0 0 1-.165-.33h-.132l-2.475 2.079a11.823 11.823 0 0 1-2.805 1.782l-.231-.2 2.112-4.653a31.717 31.717 0 0 0 1.881-4.62c0-.5-.264-.726-.825-.726-.726 0-2.475 1.287-5.214 3.828-1.749 1.65-3.267 3.168-4.521 4.521h-.132c2.343-5.181 3.5-7.755 3.5-7.689 0-.3-.132-.462-.363-.462a1.566 1.566 0 0 0-1.287.66 6.831 6.831 0 0 0-.627 1.419 4.2 4.2 0 0 1-.66 1.353q-.545.643-1.386 1.485c-.363.33-.693.66-1.056.957a2.293 2.293 0 0 0-.759 1.254c0 .4.1.627.33.66.759-.759 1.353-1.353 1.716-1.782l-1.718 4.593c0 .495.165.726.528.726.561 0 2.112-1.452 4.686-4.356 2.706-3 4.587-4.686 5.676-4.983l.1.132-.1.4c-.693 1.32-1.353 2.64-2.013 3.993a23.855 23.855 0 0 0-1.584 4.158c.066.429.363.66.891.66.1 0 .33-.033.693-.066a10.389 10.389 0 0 0 3.036-1.716 10.163 10.163 0 0 0 2.739-2.277 1.767 1.767 0 0 0 .165-.796Z" fill="#fff"/></svg>