<svg xmlns="http://www.w3.org/2000/svg" width="174.834" height="49.123"><path d="M19.008 4.455c0-2.739-1.716-4.191-4.488-4.191a10.338 10.338 0 0 0-2.838.4 1.472 1.472 0 0 0-1.155-.66 1.209 1.209 0 0 0-1.089.561c-.132.4-.264.792-.429 1.188Q5.891 3.09 5.445 5.02a2.314 2.314 0 0 0 1.254 1.254l.825-.4-1.122 2.244c-.759 1.584-1.254 2.508-1.419 2.8q-1.782 0-1.782 1.287a1.667 1.667 0 0 0 .56 1.16c-.462.891-1.089 2.277-1.848 4.158a19.874 19.874 0 0 0-1.652 4.752 1.528 1.528 0 0 0 1.356 1.584 1.153 1.153 0 0 0 1.056-.594c0-.033.165-.429.462-1.188 1.287-3.2 2.409-5.808 3.333-7.755.165 0 .924.132 1.188.132a11.788 11.788 0 0 0 7.557-3.036c2.541-2.079 3.795-4.422 3.795-6.963Zm-2.277 0c0 1.518-.99 3.1-3 4.719-1.98 1.617-3.762 2.442-5.379 2.442-.132 0-.462-.1-.594-.1a152.213 152.213 0 0 1 3.4-7.59 7.486 7.486 0 0 1 3.333-.957c1.481.001 2.24.496 2.24 1.486Zm11.484 10.032c0-.627-.33-.924-1.023-.924-.033 0-.924.429-2.64 1.287a12.39 12.39 0 0 1 1.155-1.155c.66-.594.99-1.089.99-1.518q0-1.188-1.089-1.188c-.528 0-1.419.561-2.706 1.65l-.66.594a2 2 0 0 0 .3-.891c0-.627-.462-.924-1.353-.924l-1.023.594c-.825.462-1.914 2.343-3.333 5.61a82.275 82.275 0 0 0-1.122 3.1 3.729 3.729 0 0 0-.3 1.122c0 .66.4 1.056 1.188 1.155a4.717 4.717 0 0 0 1.023-.561 22.242 22.242 0 0 1 4.092-6.004c.1.792.693 1.155 1.815 1.155a6.219 6.219 0 0 0 2.871-.955c1.221-.728 1.815-1.454 1.815-2.147Zm-7.92 1.815a.249.249 0 0 1 .033-.132.341.341 0 0 1-.033.132Zm4.092-1.155a.1.1 0 0 1 .033-.066.115.115 0 0 1-.033.066Zm13.2-2.409c0-1.518-.594-2.277-1.749-2.277-1.65 0-3.3 1.155-4.917 3.465a10.605 10.605 0 0 0-2.277 5.874c0 1.749.759 2.64 2.244 2.64 1.518 0 3.036-1.254 4.587-3.762a11.886 11.886 0 0 0 2.112-5.944Zm-2.409.66a7.175 7.175 0 0 1-1.089 1.914 3.609 3.609 0 0 0-.891 1.716l.264.363c-.627 1.419-1.287 2.143-1.98 2.243l-.132-.066-.132-.429a8.748 8.748 0 0 1 3.4-5.577 1.19 1.19 0 0 1 .495-.264ZM52.932 2.706a1.346 1.346 0 0 0-1.254-1.452 1.146 1.146 0 0 0-1.023.528 47 47 0 0 0-2.739 4.686l-2.508 4.818a2.469 2.469 0 0 0-1.089-.2q-2.475 0-4.455 2.97a9.445 9.445 0 0 0-1.815 5.313c0 2.079.726 3.135 2.211 3.135 1.023 0 2.013-.726 3.036-2.211a6.051 6.051 0 0 0 .627 1.65 2.507 2.507 0 0 0 1.518.858 1.43 1.43 0 0 0 1.155-1.417v-.2l-.066-.231a4.359 4.359 0 0 0-.594-.792 1.612 1.612 0 0 1-.33-1.155c0-1.683.792-4.059 2.376-7.194.2-.429 1.386-2.541 3.531-6.369l.891-1.32a2.706 2.706 0 0 0 .528-1.417Zm-8.58 10.928c-1.617 3.658-2.871 5.6-3.691 5.869a1.484 1.484 0 0 1-.2-.627 6.521 6.521 0 0 1 1.188-3.2c.825-1.386 1.65-2.079 2.442-2.079h.132a.249.249 0 0 0 .129.037Zm12.969-.1a1.179 1.179 0 0 0-1.122-1.221c-.891 0-1.584.726-2.079 2.211a13.674 13.674 0 0 1-2.046 3.795c-.561.759-.957 1.155-1.188 1.221v-.066a8.729 8.729 0 0 1 1.881-3.96 7.915 7.915 0 0 0 1.683-2.838l-.1.066.033-.231a1.536 1.536 0 0 0-1.155-.594c-.528 0-1.188.462-1.947 1.353a14.181 14.181 0 0 0-1.452 2.112 10.269 10.269 0 0 0-1.452 4.488 3.1 3.1 0 0 0 .462 1.65 1.651 1.651 0 0 0 1.452.858 3.728 3.728 0 0 0 2.937-1.947c.433 1.679 1.288 2.503 2.608 2.503.957 0 1.419-.429 1.419-1.32 0-.363-.3-.792-.891-1.221a1.9 1.9 0 0 1-.891-1.584 5.488 5.488 0 0 1 .924-2.706 5.413 5.413 0 0 0 .924-2.569Zm10.89 3.56c0-.792-.3-1.188-.858-1.188a1.881 1.881 0 0 0-1.287.858 10.4 10.4 0 0 1-4.059 3.3c-.4-.1-.429-.429-.528-.726a8.993 8.993 0 0 1 2.97-5.115 5.7 5.7 0 0 1 .693-.561 12.774 12.774 0 0 1-1.254 1.848 1.343 1.343 0 0 0 .264.792 3.652 3.652 0 0 1 .66.363 2.46 2.46 0 0 0 1.98-1.386 4.527 4.527 0 0 0 .792-2.409c0-1.287-.594-1.947-1.815-1.947a3.1 3.1 0 0 0-1.452.429 10.569 10.569 0 0 0-3.795 3.7 9.148 9.148 0 0 0-1.683 4.882 2.914 2.914 0 0 0 3.069 2.7 4.976 4.976 0 0 0 3.5-1.617 23.042 23.042 0 0 0 2.508-3.135 1.481 1.481 0 0 0 .295-.788Zm13.464-8.085c0-.627-.759-1.056-1.419-1.056a5.818 5.818 0 0 0-1.386.2l-.462.594a2 2 0 0 1 .4-.594l-.594.2c.3-.132.5-.231.693-.3l.33-.429a2.573 2.573 0 0 0 .693-1.65 1.2 1.2 0 0 0-1.188-1.188c-.495 0-1.221.66-2.112 1.947l-1.716 2.673-1.782.33q-1.287.4-1.287 1.188c0 .561.363.99 1.089 1.32h.227c-.858 1.782-1.353 2.97-1.584 3.5a10.966 10.966 0 0 0-.858 3.861 3.244 3.244 0 0 0 .66 1.848 2 2 0 0 0 1.617.891c1.485 0 2.97-1.089 4.389-3.3a18.73 18.73 0 0 0 1.122-1.881 4.512 4.512 0 0 0 .165-.627 1.118 1.118 0 0 0-1.122-1.023 1.157 1.157 0 0 0-.462.2c-.1.1-.627.825-1.584 2.211-.693 1.023-1.32 1.584-1.848 1.683l-.132-.1-.066-.33a26.87 26.87 0 0 1 3.168-7.788 20.14 20.14 0 0 1 2.706-.759l1.551-.33a1.281 1.281 0 0 0 .792-1.291Zm-2.673-.99a.121.121 0 0 1-.1.033l-.1.1h.066Zm11.22 4.158c0-1.353-.858-2.013-2.607-2.013a6.427 6.427 0 0 0-3.96 1.32 4.317 4.317 0 0 0-1.947 3.564 4.833 4.833 0 0 0 .953 2.409 4.712 4.712 0 0 1 .957 2.046.958.958 0 0 1-.924.825 1.4 1.4 0 0 1-1.188-1.386 4.28 4.28 0 0 1 .264-1.122 5.928 5.928 0 0 0 .3-.891c0-.561-.33-.825-1.023-.825a1.679 1.679 0 0 0-1.486 1.155 4.586 4.586 0 0 0-.46 1.975 3.31 3.31 0 0 0 3.46 3.6 3.81 3.81 0 0 0 2.508-.924 2.841 2.841 0 0 0 1.127-2.276 5.1 5.1 0 0 0-.957-2.541 6.487 6.487 0 0 1-.825-1.518h.132a.625.625 0 0 0 .66.594 5.893 5.893 0 0 0 3.366-1.055 3.476 3.476 0 0 0 1.65-2.937Zm-5.907 2.9a2.179 2.179 0 0 1 .99-1.782 3.126 3.126 0 0 1 1.947-.693c-.033 0 .033 0 .165.033l.1.165c0 .3-.4.594-1.188.825a4.016 4.016 0 0 0-1.419.594 2.489 2.489 0 0 0-.561 1.155.914.914 0 0 1-.034-.293Zm23.793.924c0-.594-.231-.891-.66-.891-.561 0-1.287.627-2.145 1.914-.825 1.287-1.386 1.914-1.65 1.914h-.066a6.341 6.341 0 0 1 .792-1.947 18 18 0 0 1 1.089-1.749l.957-1.32a2.846 2.846 0 0 0 .5-1.518q0-1.188-1.287-1.188a2.3 2.3 0 0 0-.792.1 11.105 11.105 0 0 0-2.079 1.353l-.462.363c.3-.66.693-1.386 1.122-2.178.693-1.155 1.353-2.343 2.046-3.531l1.386-2.145a6.567 6.567 0 0 0 1.089-2.475 1.3 1.3 0 0 0-1.32-1.386.828.828 0 0 0-.33.033 4.779 4.779 0 0 0-1.947 2.079l-1.19 2.676-1.98 4.257c-1.82 3.894-2.973 6.272-3.468 7.095l-1.089 2.31a4.107 4.107 0 0 0-.263 1.617c0 .891.363 1.353 1.089 1.353.594 0 1.023-.429 1.32-1.32a12.4 12.4 0 0 1 3.53-5.483 11.02 11.02 0 0 0-1.485 3.96c0 1.419.594 2.112 1.749 2.112 1.023 0 2.211-.759 3.564-2.31 1.32-1.48 1.98-2.701 1.98-3.691Zm9.933-3.6c0-1.254-.726-1.881-2.145-1.881q-2.574 0-4.851 3.366a10.577 10.577 0 0 0-2.084 5.782 3.211 3.211 0 0 0 .5 1.848 1.857 1.857 0 0 0 1.65.858 3.238 3.238 0 0 0 1.947-.858 6.706 6.706 0 0 0 .693-.66 3.867 3.867 0 0 0 1.155 1.749 9.592 9.592 0 0 0 1.287.4c.891-.132 1.32-.528 1.32-1.155a1.273 1.273 0 0 0-.726-1.221 1.405 1.405 0 0 1-.726-1.353 7.268 7.268 0 0 1 .957-2.9 8.79 8.79 0 0 0 .957-2.409 1.424 1.424 0 0 0-.132-.726 2.612 2.612 0 0 0 .198-.833Zm-2.343 1.033c-.1.1-.693 1.188-1.815 3.267-.957 1.815-1.716 2.772-2.277 2.8a2.745 2.745 0 0 1-.066-.429 7.542 7.542 0 0 1 1.287-3.432c.924-1.551 1.782-2.343 2.541-2.343a.348.348 0 0 1 .33.137Zm13.761-.462c0-.858-.4-1.287-1.155-1.287a5.452 5.452 0 0 0-2.673 1.485l-.264.2a.643.643 0 0 0 .033-.264 1.117 1.117 0 0 0-1.056-1.188q-.841 0-1.881 1.584l-1.287 2.376c-1.518 2.8-2.277 4.455-2.277 5.016 0 .957.429 1.452 1.254 1.452a1.111 1.111 0 0 0 .99-.462c1.089-1.782 1.716-2.772 1.848-2.937l.66-.957a8.676 8.676 0 0 0-.462 2.739 5.576 5.576 0 0 0 .4 2.178 1.726 1.726 0 0 0 1.65 1.221c.759 0 1.155-.363 1.155-1.089a2.847 2.847 0 0 0-.33-1.122 2.951 2.951 0 0 1-.33-1.188 7 7 0 0 1 .957-3.168c.3-.561.924-1.485 1.815-2.772a4.9 4.9 0 0 0 .955-1.82Zm15.114-10.263a1.346 1.346 0 0 0-1.254-1.452 1.146 1.146 0 0 0-1.023.528 47 47 0 0 0-2.735 4.683l-2.508 4.818a2.469 2.469 0 0 0-1.089-.2q-2.475 0-4.455 2.97a9.445 9.445 0 0 0-1.815 5.313c0 2.079.726 3.135 2.211 3.135 1.023 0 2.013-.726 3.036-2.211a6.052 6.052 0 0 0 .62 1.652 2.507 2.507 0 0 0 1.518.858 1.43 1.43 0 0 0 1.155-1.419v-.2l-.066-.231a4.358 4.358 0 0 0-.594-.792 1.612 1.612 0 0 1-.33-1.155c0-1.683.792-4.059 2.376-7.194.2-.429 1.386-2.541 3.531-6.369l.891-1.32a2.706 2.706 0 0 0 .531-1.417Zm-8.58 10.925c-1.617 3.663-2.871 5.61-3.7 5.874a1.484 1.484 0 0 1-.2-.627 6.521 6.521 0 0 1 1.188-3.2c.825-1.386 1.65-2.079 2.442-2.079h.132a.249.249 0 0 0 .138.032Zm18.678-11.621a1.813 1.813 0 0 0-1.683-1.914q-1.881 0-4.851 4.059a57.069 57.069 0 0 0-4.785 8.217 30.054 30.054 0 0 0-2.541 6.4c-.1.693-.2 1.188-.264 1.518a3.018 3.018 0 0 0 .594 1.32 1.587 1.587 0 0 0 1.221.66 4.342 4.342 0 0 0 3-1.749 14.8 14.8 0 0 0 2.046-3.036 2.862 2.862 0 0 0 .231-.825.954.954 0 0 0-.891-.99c-.561 0-1.122.561-1.749 1.65-.627 1.188-1.221 1.848-1.782 1.947a10.442 10.442 0 0 1 .924-2.706 20.644 20.644 0 0 1 1.98-1.947c4.191-4.026 6.93-7.722 8.217-11.055a4.1 4.1 0 0 0 .333-1.549Zm-4.95 5.247a56.16 56.16 0 0 1-3.168 3.993 36.959 36.959 0 0 1 4.356-7.1l.99-1.056c-.066.797-.792 2.216-2.178 4.163Zm9.44 9.537c0-.627-.3-.957-.924-.957-.3 0-1.056.627-2.31 1.914-1.221 1.254-2.31 1.881-3.2 1.881a.957.957 0 0 1-.99-.726 11.028 11.028 0 0 0 3.7-2.376 5.443 5.443 0 0 0 1.98-3.8 1.478 1.478 0 0 0-1.65-1.683c-1.155 0-2.541.825-4.191 2.475a9.059 9.059 0 0 0-1.815 2.673 7.342 7.342 0 0 0-.759 3.036 2.832 2.832 0 0 0 2.937 3.036c1.749 0 3.5-1.155 5.379-2.871 1.214-1.084 1.843-1.975 1.843-2.602Zm-5.313-1.65-1.287 1.087c1.056-1.518 1.815-2.343 2.343-2.475a3.4 3.4 0 0 1-1.058 1.388Zm20.988-12.441a1.346 1.346 0 0 0-1.254-1.452 1.146 1.146 0 0 0-1.023.528 47 47 0 0 0-2.739 4.686l-2.508 4.818a2.469 2.469 0 0 0-1.089-.2q-2.475 0-4.455 2.97a9.445 9.445 0 0 0-1.815 5.313c0 2.079.726 3.135 2.211 3.135 1.023 0 2.013-.726 3.036-2.211a6.052 6.052 0 0 0 .627 1.65 2.507 2.507 0 0 0 1.518.858 1.43 1.43 0 0 0 1.155-1.419v-.2l-.066-.231a4.36 4.36 0 0 0-.594-.792 1.612 1.612 0 0 1-.33-1.155c0-1.683.792-4.059 2.376-7.194.2-.429 1.386-2.541 3.531-6.369l.891-1.32a2.706 2.706 0 0 0 .526-1.415Zm-8.582 10.928c-1.617 3.663-2.871 5.61-3.7 5.874a1.484 1.484 0 0 1-.2-.627 6.521 6.521 0 0 1 1.188-3.2c.825-1.386 1.65-2.079 2.442-2.079h.132a.249.249 0 0 0 .138.032ZM13.332 26.254A1.391 1.391 0 0 0 11.979 25c-1.023 0-3.234 3.036-6.666 9.108-1.716 3.036-2.8 5.016-3.267 5.973C.693 42.886 0 45.034 0 46.516a1.441 1.441 0 0 0 1.353 1.418c.627 0 .99-.2 1.122-.627l1.186-3.827a67.856 67.856 0 0 1 8.615-14.916 4.543 4.543 0 0 0 1.056-2.31Zm6.1 11.715c0-.858-.4-1.287-1.155-1.287a5.452 5.452 0 0 0-2.673 1.485l-.264.2a.643.643 0 0 0 .033-.264 1.117 1.117 0 0 0-1.056-1.188q-.841 0-1.881 1.584l-1.287 2.376c-1.518 2.805-2.277 4.455-2.277 5.016 0 .957.429 1.452 1.254 1.452a1.111 1.111 0 0 0 .99-.462c1.089-1.782 1.716-2.772 1.848-2.937l.66-.957a8.676 8.676 0 0 0-.462 2.739 5.576 5.576 0 0 0 .4 2.178 1.726 1.726 0 0 0 1.65 1.221c.759 0 1.155-.363 1.155-1.089a2.847 2.847 0 0 0-.33-1.122 2.951 2.951 0 0 1-.33-1.188 7 7 0 0 1 .957-3.168c.3-.561.924-1.485 1.815-2.772a4.9 4.9 0 0 0 .958-1.817Zm12.111-3.96c0-.627-.759-1.056-1.419-1.056a5.818 5.818 0 0 0-1.386.2l-.462.594a2 2 0 0 1 .4-.594l-.594.2c.3-.132.495-.231.693-.3l.33-.429a2.573 2.573 0 0 0 .693-1.65 1.2 1.2 0 0 0-1.187-1.189c-.495 0-1.221.66-2.112 1.947l-1.716 2.673-1.782.33q-1.287.4-1.287 1.188c0 .561.363.99 1.089 1.32h.231c-.858 1.782-1.353 2.97-1.584 3.5a10.966 10.966 0 0 0-.858 3.861 3.244 3.244 0 0 0 .66 1.848 2 2 0 0 0 1.617.891c1.485 0 2.97-1.089 4.389-3.3a18.73 18.73 0 0 0 1.122-1.881 4.512 4.512 0 0 0 .165-.627 1.118 1.118 0 0 0-1.122-1.023 1.157 1.157 0 0 0-.462.2c-.1.1-.627.825-1.584 2.211-.693 1.023-1.32 1.584-1.848 1.683l-.132-.1-.066-.33a26.87 26.87 0 0 1 3.168-7.788 20.14 20.14 0 0 1 2.706-.759l1.551-.33a1.281 1.281 0 0 0 .792-1.29Zm-2.673-.99a.121.121 0 0 1-.1.033l-.1.1h.066Zm10.791 8.778c0-.627-.3-.957-.924-.957-.3 0-1.056.627-2.31 1.914-1.221 1.254-2.31 1.881-3.2 1.881a.957.957 0 0 1-.99-.726 11.028 11.028 0 0 0 3.7-2.376 5.443 5.443 0 0 0 1.98-3.8 1.478 1.478 0 0 0-1.65-1.683c-1.155 0-2.541.825-4.191 2.475a9.059 9.059 0 0 0-1.815 2.678 7.342 7.342 0 0 0-.759 3.036 2.832 2.832 0 0 0 2.937 3.036c1.749 0 3.5-1.155 5.379-2.871 1.221-1.089 1.848-1.98 1.848-2.607Zm-5.313-1.65-1.282 1.087c1.056-1.518 1.815-2.343 2.343-2.475a3.4 3.4 0 0 1-1.056 1.388Zm17.721-.66c0-.627-.33-.924-1.023-.924-.033 0-.924.429-2.64 1.287a12.39 12.39 0 0 1 1.155-1.155c.66-.594.99-1.089.99-1.518q0-1.188-1.089-1.188c-.528 0-1.419.561-2.706 1.65l-.66.594a2 2 0 0 0 .3-.891c0-.627-.462-.924-1.353-.924l-1.023.594c-.825.462-1.914 2.343-3.333 5.61a82.275 82.275 0 0 0-1.122 3.1 3.729 3.729 0 0 0-.3 1.122c0 .66.4 1.056 1.188 1.155a4.717 4.717 0 0 0 1.023-.561 22.242 22.242 0 0 1 4.097-6.004c.1.792.693 1.155 1.815 1.155a6.219 6.219 0 0 0 2.873-.955c1.219-.728 1.813-1.454 1.813-2.147Zm-7.92 1.815a.249.249 0 0 1 .033-.132.341.341 0 0 1-.028.132Zm4.092-1.155a.1.1 0 0 1 .033-.066.115.115 0 0 1-.028.066Zm10.56-2.772c0-.726-.363-1.089-1.122-1.089-.792 0-1.98 1.485-3.531 4.455-1.485 2.8-2.244 4.62-2.244 5.445a1.473 1.473 0 0 0 1.221 1.617 2.557 2.557 0 0 0 1.089-.693 22.468 22.468 0 0 0 .759-2.211 28 28 0 0 1 1.749-3.894l1.188-1.914a6.621 6.621 0 0 0 .896-1.716Zm3.2-6.039a1.061 1.061 0 0 0-1.188-1.221 2.179 2.179 0 0 0-1.782.99 4.958 4.958 0 0 0-.792 2.013 2.286 2.286 0 0 0 1.222 1.056 3.045 3.045 0 0 0 2.546-2.84Zm5.544 6.4c0-1.518-.594-2.277-1.749-2.277-1.65 0-3.3 1.155-4.917 3.465a10.605 10.605 0 0 0-2.277 5.874c0 1.749.759 2.64 2.244 2.64 1.518 0 3.036-1.254 4.587-3.762a11.886 11.886 0 0 0 2.118-5.942Zm-2.409.66a7.175 7.175 0 0 1-1.089 1.914 3.609 3.609 0 0 0-.891 1.716l.264.363c-.627 1.419-1.287 2.145-1.98 2.244l-.132-.066-.132-.429a8.748 8.748 0 0 1 3.4-5.577 1.19 1.19 0 0 1 .495-.264Zm14.487 1.089c0-.627-.33-.924-1.023-.924-.033 0-.924.429-2.64 1.287a12.39 12.39 0 0 1 1.155-1.155c.66-.594.99-1.089.99-1.518q0-1.188-1.089-1.188c-.528 0-1.419.561-2.706 1.65l-.66.594a2 2 0 0 0 .3-.891c0-.627-.462-.924-1.353-.924l-1.023.594c-.825.462-1.914 2.343-3.333 5.61a82.275 82.275 0 0 0-1.122 3.1 3.729 3.729 0 0 0-.3 1.122c0 .66.4 1.056 1.188 1.155a4.717 4.717 0 0 0 1.023-.561 22.242 22.242 0 0 1 4.098-6.002c.1.792.693 1.155 1.815 1.155a6.219 6.219 0 0 0 2.871-.957c1.221-.726 1.815-1.452 1.815-2.145Zm-7.92 1.815a.249.249 0 0 1 .033-.132.341.341 0 0 1-.027.134Zm4.092-1.155a.1.1 0 0 1 .033-.066.115.115 0 0 1-.027.068Z" fill="#ffee26"/></svg>